<?xml version='1.0' encoding='utf-8'?>
<svg xmlns="http://www.w3.org/2000/svg" width="1024" height="1024" baseProfile="full" viewBox="105 86 813 813"><path d="M0 0h1024v1024H0z" fill="#F6F0E4" /><path fill="#2b2520" d="M342 204.5h-2l-.5-.5-.5-.5-.5-.5v-1l-.5-.5-.5-.5v-2l-.5-.5-.5-.5v-3l-.5-.5-.5-.5v-15l.5-.5.5-.5v-3l.5-.5.5-.5v-1l.5-.5.5-.5v-1l.5-.5.5-.5v-1l.5-.5.5-.5.5-.5.5-.5v-1l.5-.5.5-.5.5-.5.5-.5v-1l.5-.5.5-.5.5-.5.5-.5.5-.5.5-.5.5-.5.5-.5.5-.5h1l.5-.5.5-.5.5-.5.5-.5h1l.5-.5.5-.5.5-.5.5-.5h1l.5-.5.5-.5h1l.5-.5.5-.5h1l.5-.5.5-.5h2l.5-.5.5-.5.5.5.5.5.5.5v1l.5.5.5.5v2l.5.5.5.5v2l.5.5.5.5v17l-.5.5-.5.5v3l-.5.5-.5.5v2l-.5.5-.5.5v1l-.5.5-.5.5-.5.5-.5.5v1l-.5.5-.5.5v1l-.5.5-.5.5-.5.5-.5.5-.5.5-.5.5-.5.5-.5.5-.5.5-.5.5-.5.5-.5.5-.5.5h-1l-.5.5-.5.5-.5.5-.5.5h-1l-.5.5-.5.5h-1l-.5.5-.5.5-.5.5-.5.5h-2l-.5.5-.5.5h-1l-.5.5zM684 204.5h-3l-.5-.5-.5-.5h-1l-.5-.5-.5-.5h-1l-.5-.5-.5-.5h-1l-.5-.5-.5-.5h-1l-.5-.5-.5-.5-.5-.5-.5-.5h-1l-.5-.5-.5-.5-.5-.5-.5-.5-.5-.5-.5-.5-.5-.5-.5-.5-.5-.5-.5-.5-.5-.5-.5-.5-.5-.5-.5-.5-.5-.5v-1l-.5-.5-.5-.5-.5-.5-.5-.5v-1l-.5-.5-.5-.5v-1l-.5-.5-.5-.5v-1l-.5-.5-.5-.5v-3l-.5-.5-.5-.5v-4l-.5-.5-.5-.5v-8l.5-.5.5-.5v-5l.5-.5.5-.5v-3l.5-.5.5-.5v-1l.5-.5.5-.5.5-.5h3l.5.5.5.5h2l.5.5.5.5h1l.5.5.5.5.5.5.5.5h1l.5.5.5.5.5.5.5.5.5.5.5.5h1l.5.5.5.5.5.5.5.5.5.5.5.5.5.5.5.5.5.5.5.5.5.5v1l.5.5.5.5.5.5.5.5.5.5.5.5v1l.5.5.5.5v1l.5.5.5.5v1l.5.5.5.5v3l.5.5.5.5v18l-.5.5-.5.5v3l-.5.5-.5.5v1l-.5.5-.5.5v1zM703 207.5h-3l-.5-.5v-5l-.5-.5-.5-.5v-7l.5-.5.5-.5v-5l.5-.5.5-.5v-3l.5-.5.5-.5v-1l.5-.5.5-.5v-2l.5-.5.5-.5.5-.5.5-.5v-1l.5-.5.5-.5.5-.5.5-.5.5-.5.5-.5v-1l.5-.5.5-.5.5-.5.5-.5.5-.5.5-.5.5-.5.5-.5.5-.5h1l.5-.5.5-.5.5-.5.5-.5h1l.5-.5.5-.5h1l.5-.5.5-.5h1l.5-.5.5-.5h1l.5-.5.5-.5h2l.5-.5.5-.5h2l.5-.5.5-.5h4l.5-.5.5-.5h3l.5.5v2l.5.5.5.5v12l-.5.5-.5.5v4l-.5.5-.5.5v2l-.5.5-.5.5v2l-.5.5-.5.5v1l-.5.5-.5.5v1l-.5.5-.5.5-.5.5-.5.5v1l-.5.5-.5.5-.5.5-.5.5-.5.5-.5.5-.5.5-.5.5-.5.5-.5.5-.5.5-.5.5-.5.5h-1l-.5.5-.5.5-.5.5-.5.5h-1l-.5.5-.5.5h-1l-.5.5-.5.5-.5.5-.5.5h-2l-.5.5-.5.5h-1l-.5.5-.5.5h-3l-.5.5-.5.5h-4l-.5.5zM323 207.5h-2l-.5-.5-.5-.5h-5l-.5-.5-.5-.5h-2l-.5-.5-.5-.5h-2l-.5-.5-.5-.5h-1l-.5-.5-.5-.5h-1l-.5-.5-.5-.5h-1l-.5-.5-.5-.5-.5-.5-.5-.5h-1l-.5-.5-.5-.5-.5-.5-.5-.5-.5-.5-.5-.5h-1l-.5-.5-.5-.5-.5-.5-.5-.5-.5-.5v-1l-.5-.5-.5-.5-.5-.5-.5-.5-.5-.5-.5-.5v-1l-.5-.5-.5-.5-.5-.5-.5-.5v-2l-.5-.5-.5-.5v-1l-.5-.5-.5-.5v-3l-.5-.5-.5-.5v-18l.5-.5h9l.5.5.5.5h2l.5.5.5.5h2l.5.5.5.5h1l.5.5.5.5h1l.5.5.5.5h1l.5.5.5.5.5.5.5.5h1l.5.5.5.5.5.5.5.5.5.5.5.5.5.5.5.5.5.5.5.5.5.5.5.5.5.5.5.5.5.5v1l.5.5.5.5.5.5.5.5v1l.5.5.5.5v1l.5.5.5.5v1l.5.5.5.5v3l.5.5.5.5v3l.5.5.5.5v12l-.5.5-.5.5v3zM264 226.5h-12l-.5-.5-.5-.5h-3l-.5-.5-.5-.5h-1l-.5-.5-.5-.5h-1l-.5-.5-.5-.5h-1l-.5-.5-.5-.5h-1l-.5-.5-.5-.5h-1l-.5-.5-.5-.5-.5-.5-.5-.5-.5-.5-.5-.5h-1l-.5-.5-.5-.5-.5-.5-.5-.5-.5-.5-.5-.5-.5-.5-.5-.5-.5-.5-.5-.5-.5-.5-.5-.5-.5-.5-.5-.5-.5-.5-.5-.5-.5-.5v-1l-.5-.5-.5-.5-.5-.5-.5-.5-.5-.5-.5-.5v-1l-.5-.5-.5-.5v-1l-.5-.5-.5-.5v-1l-.5-.5-.5-.5v-2l-.5-.5-.5-.5v-2l-.5-.5-.5-.5v-6l-.5-.5-.5-.5v-1l.5-.5h2l.5-.5.5-.5h8l.5.5.5.5h6l.5.5.5.5h2l.5.5.5.5h2l.5.5.5.5h2l.5.5.5.5h1l.5.5.5.5.5.5.5.5h1l.5.5.5.5.5.5.5.5h1l.5.5.5.5.5.5.5.5.5.5.5.5.5.5.5.5.5.5.5.5.5.5.5.5.5.5v1l.5.5.5.5.5.5.5.5v1l.5.5.5.5v1l.5.5.5.5v2l.5.5.5.5v3l.5.5.5.5v13zM772 226.5h-13l-.5-.5v-9l.5-.5.5-.5v-5l.5-.5.5-.5v-2l.5-.5.5-.5v-2l.5-.5.5-.5v-1l.5-.5.5-.5.5-.5.5-.5v-1l.5-.5.5-.5.5-.5.5-.5.5-.5.5-.5.5-.5.5-.5.5-.5.5-.5.5-.5.5-.5.5-.5.5-.5.5-.5h1l.5-.5.5-.5.5-.5.5-.5h1l.5-.5.5-.5.5-.5.5-.5h1l.5-.5.5-.5h2l.5-.5.5-.5h1l.5-.5.5-.5h3l.5-.5.5-.5h4l.5-.5.5-.5h8l.5.5.5.5h3l.5.5v4l-.5.5-.5.5v4l-.5.5-.5.5v2l-.5.5-.5.5v2l-.5.5-.5.5v1l-.5.5-.5.5v1l-.5.5-.5.5-.5.5-.5.5v1l-.5.5-.5.5-.5.5-.5.5v1l-.5.5-.5.5-.5.5-.5.5-.5.5-.5.5-.5.5-.5.5-.5.5-.5.5-.5.5-.5.5-.5.5-.5.5-.5.5h-1l-.5.5-.5.5-.5.5-.5.5h-1l-.5.5-.5.5-.5.5-.5.5h-1l-.5.5-.5.5-.5.5-.5.5h-2l-.5.5-.5.5h-1l-.5.5-.5.5h-3l-.5.5zM593 779.5h-6l-.5-.5-.5-.5h-4l-.5-.5-.5-.5h-3l-.5-.5-.5-.5h-2l-.5-.5-.5-.5h-2l-.5-.5-.5-.5h-1l-.5-.5-.5-.5h-2l-.5-.5-.5-.5h-1l-.5-.5-.5-.5h-1l-.5-.5-.5-.5h-1l-.5-.5-.5-.5-.5-.5-.5-.5h-1l-.5-.5-.5-.5-.5-.5-.5-.5-.5-.5-.5-.5h-1l-.5-.5-.5-.5-.5-.5-.5-.5-.5-.5-.5-.5-.5-.5-.5-.5-.5-.5-.5-.5-.5-.5-.5-.5-.5-.5-.5-.5-.5-.5-.5-.5h-1l-.5-.5-.5-.5-.5-.5-.5-.5-.5-.5v-1l-.5-.5-.5-.5-.5-.5-.5-.5-.5-.5-.5-.5v-1l-.5-.5-.5-.5-.5-.5-.5-.5v-1l-.5-.5-.5-.5-.5-.5-.5-.5v-1l-.5-.5-.5-.5-.5-.5-.5-.5v-1l-.5-.5-.5-.5v-1l-.5-.5-.5-.5v-1l-.5-.5-.5-.5v-1l-.5-.5-.5-.5-.5-.5-.5-.5v-2l-.5-.5-.5-.5v-1l-.5-.5-.5-.5v-2l-.5-.5-.5-.5v-1l-.5-.5-.5-.5v-2l-.5-.5-.5-.5v-2l-.5-.5-.5-.5v-2l-.5-.5-.5-.5v-3l-.5-.5-.5-.5v-2l-.5-.5-.5-.5v-4l-.5-.5-.5-.5v-3l-.5-.5-.5-.5v-3l-.5-.5-.5-.5v-4l-.5-.5-.5-.5v-3l-.5-.5-.5-.5v-4l-.5-.5-.5-.5v-4l-.5-.5-.5-.5v-3l-.5-.5-.5-.5v-5l-.5-.5-.5-.5v-4l-.5-.5-.5-.5v-4l-.5-.5-.5-.5v-4l-.5-.5-.5-.5v-3l-.5-.5-.5-.5v-3l-.5-.5-.5-.5v-3l-.5-.5-.5-.5v-3l-.5-.5-.5-.5v-3l-.5-.5-.5-.5v-2l-.5-.5-.5-.5v-3l-.5-.5-.5-.5v-2l-.5-.5-.5-.5v-2l-.5-.5-.5-.5v-2l-.5-.5-.5-.5v-2l-.5-.5-.5-.5v-2l-.5-.5-.5-.5v-2l-.5-.5-.5-.5v-2l-.5-.5-.5-.5v-2l-.5-.5-.5-.5v-2l-.5-.5-.5-.5v-1l-.5-.5-.5-.5v-2l-.5-.5-.5-.5v-2l-.5-.5-.5-.5v-2l-.5-.5-.5-.5v-1l-.5-.5-.5-.5v-2l-.5-.5-.5-.5v-1l-.5-.5-.5-.5v-2l-.5-.5-.5-.5v-1l-.5-.5-.5-.5v-1l-.5-.5-.5-.5v-2l-.5-.5-.5-.5v-1l-.5-.5-.5-.5v-2l-.5-.5-.5-.5v-1l-.5-.5-.5-.5v-1l-.5-.5-.5-.5v-2l-.5-.5-.5-.5v-1l-.5-.5-.5-.5v-1l-.5-.5-.5-.5v-2l-.5-.5-.5-.5v-1l-.5-.5-.5-.5v-1l-.5-.5-.5-.5v-1l-.5-.5-.5-.5v-1l-.5-.5-.5-.5v-2l-.5-.5-.5-.5v-1l-.5-.5-.5-.5v-1l-.5-.5-.5-.5v-1l-.5-.5-.5-.5v-1l-.5-.5-.5-.5v-1l-.5-.5-.5-.5v-1l-.5-.5-.5-.5v-1l-.5-.5-.5-.5v-1l-.5-.5-.5-.5v-1l-.5-.5-.5-.5v-1l-.5-.5-.5-.5v-2l-.5-.5-.5-.5-.5-.5-.5-.5v-1l-.5-.5-.5-.5v-2l-.5-.5-.5-.5v-1l-.5-.5-.5-.5v-1l-.5-.5-.5-.5v-1l-.5-.5-.5-.5v-1l-.5-.5-.5-.5-.5-.5-.5-.5v-1l-.5-.5-.5-.5v-1l-.5-.5-.5-.5v-1l-.5-.5-.5-.5v-1l-.5-.5-.5-.5v-1l-.5-.5-.5-.5v-1l-.5-.5-.5-.5v-1l-.5-.5-.5-.5v-1l-.5-.5-.5-.5v-1l-.5-.5-.5-.5v-1l-.5-.5-.5-.5v-1l-.5-.5-.5-.5v-1l-.5-.5-.5-.5v-1l-.5-.5-.5-.5v-1l-.5-.5-.5-.5v-1l-.5-.5-.5-.5-.5-.5-.5-.5v-1l-.5-.5-.5-.5v-1l-.5-.5-.5-.5v-1l-.5-.5-.5-.5v-1l-.5-.5-.5-.5v-1l-.5-.5-.5-.5v-1l-.5-.5-.5-.5v-1l-.5-.5-.5-.5-.5-.5-.5-.5v-1l-.5-.5-.5-.5v-1l-.5-.5-.5-.5v-1l-.5-.5-.5-.5v-1l-.5-.5-.5-.5v-1l-.5-.5-.5-.5v-1l-.5-.5-.5-.5v-1l-.5-.5-.5-.5v-1l-.5-.5-.5-.5v-1l-.5-.5-.5-.5v-1l-.5-.5-.5-.5v-1l-.5-.5-.5-.5v-1l-.5-.5-.5-.5v-2l-.5-.5-.5-.5v-1l-.5-.5-.5-.5v-1l-.5-.5-.5-.5v-2l-.5-.5-.5-.5v-1l-.5-.5-.5-.5v-2l-.5-.5-.5-.5v-2l-.5-.5-.5-.5v-2l-.5-.5-.5-.5v-2l-.5-.5-.5-.5v-2l-.5-.5-.5-.5v-2l-.5-.5-.5-.5v-1l-.5-.5-.5-.5v-2l-.5-.5-.5-.5v-3l-.5-.5-.5-.5v-3l-.5-.5-.5-.5v-3l-.5-.5-.5-.5v-4l-.5-.5-.5-.5v-3l-.5-.5-.5-.5v-4l-.5-.5-.5-.5v-4l-.5-.5-.5-.5v-4l-.5-.5-.5-.5v-5l-.5-.5-.5-.5v-6l-.5-.5-.5-.5v-6l-.5-.5-.5-.5v-8l-.5-.5-.5-.5v-13l-.5-.5-.5-.5v-14l-.5-.5-.5-.5v-26l-.5-.5-.5-.5v-69l.5-.5.5-.5v-15l.5-.5.5-.5.5-.5h6l.5.5.5.5.5.5v1l.5.5.5.5v16l.5.5.5.5v51l.5.5.5.5v31l.5.5.5.5v16l.5.5.5.5v1l.5.5.5-.5v-1l.5-.5.5-.5v-2l.5-.5.5-.5v-1l.5-.5.5-.5v-2l.5-.5.5-.5v-1l.5-.5.5-.5v-2l.5-.5.5-.5v-1l.5-.5.5-.5v-2l.5-.5.5-.5v-2l.5-.5.5-.5v-1l.5-.5.5-.5v-1l.5-.5.5-.5v-1l.5-.5.5-.5v-2l.5-.5.5-.5v-1l.5-.5.5-.5v-1l.5-.5.5-.5v-1l.5-.5.5-.5v-2l.5-.5.5-.5.5-.5.5-.5v-1l.5-.5.5-.5v-1l.5-.5.5-.5v-1l.5-.5.5-.5v-1l.5-.5.5-.5.5-.5.5-.5.5-.5h1l.5-.5.5-.5.5-.5.5-.5h2l.5-.5.5-.5h2l.5.5v3l-.5.5-.5.5v2l-.5.5-.5.5v3l-.5.5-.5.5v2l-.5.5-.5.5v2l-.5.5-.5.5v2l-.5.5-.5.5v3l-.5.5-.5.5v1l-.5.5-.5.5v2l-.5.5-.5.5v2l-.5.5-.5.5v2l-.5.5-.5.5v1l-.5.5-.5.5v2l-.5.5-.5.5v2l-.5.5-.5.5v1l-.5.5-.5.5v2l-.5.5-.5.5v1l-.5.5-.5.5v2l-.5.5-.5.5v1l-.5.5-.5.5v1l-.5.5-.5.5v2l-.5.5-.5.5v1l-.5.5-.5.5v2l-.5.5-.5.5v1l-.5.5-.5.5v1l-.5.5-.5.5v1l-.5.5-.5.5v1l-.5.5-.5.5v2l-.5.5-.5.5v1l-.5.5-.5.5v1l-.5.5-.5.5v6l.5.5.5.5v6l.5.5.5.5v4l.5.5.5.5v4l.5.5.5.5v4l.5.5.5.5v4l.5.5.5.5v4l.5.5.5.5v3l.5.5.5.5v3l.5.5.5.5v2l.5.5.5.5v2l.5.5.5.5v2l.5.5.5.5v2l.5.5.5.5v2l.5.5.5.5v3l.5.5.5.5v1l.5.5.5.5v2l.5.5.5.5v2l.5.5.5.5v1l.5.5.5-.5.5-.5.5-.5v-1l.5-.5.5-.5v-1l.5-.5.5-.5v-2l.5-.5.5-.5v-1l.5-.5.5-.5v-1l.5-.5.5-.5v-1l.5-.5.5-.5v-1l.5-.5.5-.5v-1l.5-.5.5-.5v-2l.5-.5.5-.5v-1l.5-.5.5-.5v-1l.5-.5.5-.5.5-.5.5-.5v-1l.5-.5.5-.5v-1l.5-.5.5-.5v-1l.5-.5.5-.5.5-.5.5-.5v-1l.5-.5.5-.5.5-.5.5-.5v-1l.5-.5.5-.5.5-.5h1l.5-.5.5-.5.5-.5.5-.5h2l.5-.5.5-.5h1l.5.5v3l-.5.5-.5.5v2l-.5.5-.5.5v2l-.5.5-.5.5v2l-.5.5-.5.5v2l-.5.5-.5.5v2l-.5.5-.5.5v2l-.5.5-.5.5v2l-.5.5-.5.5v2l-.5.5-.5.5v3l-.5.5-.5.5v1l-.5.5-.5.5v2l-.5.5-.5.5v1l-.5.5-.5.5v1l-.5.5-.5.5v2l-.5.5-.5.5v1l-.5.5-.5.5v1l-.5.5-.5.5v1l-.5.5-.5.5v1l-.5.5-.5.5v1l-.5.5-.5.5v1l-.5.5-.5.5v1l-.5.5-.5.5v1l.5.5.5.5.5.5.5.5v1l.5.5.5.5v1l.5.5.5.5v1l.5.5.5.5v1l.5.5.5.5v1l.5.5.5.5v1l.5.5.5.5.5.5.5.5v1l.5.5.5.5v1l.5.5.5.5v1l.5.5.5.5v1l.5.5.5.5v1l.5.5.5.5v1l.5.5.5.5v1l.5.5.5.5v1l.5.5.5.5v1l.5.5.5.5.5.5.5.5v1l.5.5.5.5v1l.5.5.5.5v1l.5.5.5.5v1l.5.5.5.5v1l.5.5.5.5v1l.5.5.5.5.5.5.5.5v2l.5.5.5.5v1l.5.5.5.5.5.5.5.5v2l.5.5.5.5.5.5.5.5v1l.5.5.5.5v1l.5.5.5.5v1l.5.5.5.5v1l.5.5.5.5v1l.5.5.5.5v1l.5.5.5.5v1l.5.5.5.5v1l.5.5.5.5v1l.5.5.5.5v1l.5.5.5.5v1l.5.5.5.5v1l.5.5.5.5v1l.5.5.5.5v1l.5.5.5.5v1l.5.5.5.5v1l.5.5.5.5v1l.5.5.5.5v1l.5.5.5.5v1l.5.5.5.5v1l.5.5.5.5v1l.5.5.5.5v1l.5.5.5.5v1l.5.5.5.5v2l.5.5.5.5v1l.5.5.5.5v1l.5.5.5.5v1l.5.5.5.5v1l.5.5.5.5v1l.5.5.5.5v1l.5.5.5.5v2l.5.5.5.5v1l.5.5.5.5v1l.5.5.5.5v1l.5.5.5.5v2l.5.5.5.5v1l.5.5.5.5v1l.5.5.5.5v2l.5.5.5.5v1l.5.5.5.5v1l.5.5.5.5v1l.5.5.5.5v2l.5.5.5.5v2l.5.5.5.5v1l.5.5.5.5v2l.5.5.5.5v1l.5.5.5.5v2l.5.5.5.5v2l.5.5.5.5v1l.5.5.5.5v2l.5.5.5.5v2l.5.5.5.5v2l.5.5.5.5v2l.5.5.5.5v2l.5.5.5.5v3l.5.5.5.5v2l.5.5.5.5v3l.5.5.5.5v2l.5.5.5.5v3l.5.5.5.5v2l.5.5.5.5v3l.5.5.5.5v4l.5.5.5.5v3l.5.5.5.5v3l.5.5.5.5v3l.5.5.5.5v4l.5.5.5.5v3l.5.5.5.5v4l.5.5.5.5v4l.5.5.5.5v4l.5.5.5.5v3l.5.5.5.5v3l.5.5.5.5v3l.5.5.5.5v3l.5.5.5.5v3l.5.5.5.5v2l.5.5.5.5v2l.5.5.5.5v3l.5.5.5.5v2l.5.5.5.5v2l.5.5.5.5v2l.5.5.5.5v2l.5.5.5.5v1l.5.5.5.5v2l.5.5.5.5v2l.5.5.5.5v1l.5.5.5.5v1l.5.5.5.5v1l.5.5.5.5v1l.5.5.5.5v1l.5.5.5.5v1l.5.5.5.5v1l.5.5.5.5.5.5.5.5v1l.5.5.5.5v1l.5.5.5.5.5.5.5.5v1l.5.5.5.5.5.5.5.5.5.5.5.5v1l.5.5.5.5.5.5.5.5.5.5.5.5v1l.5.5.5.5.5.5.5.5.5.5.5.5.5.5.5.5.5.5.5.5.5.5.5.5.5.5.5.5.5.5.5.5.5.5.5.5.5.5.5.5.5.5.5.5.5.5.5.5.5.5.5.5.5.5h1l.5.5.5.5.5.5.5.5h1l.5.5.5.5.5.5.5.5h1l.5.5.5.5.5.5.5.5.5.5.5.5h1l.5.5.5.5h1l.5.5.5.5.5.5.5.5h1l.5.5.5.5h1l.5.5.5.5.5.5z" /><path fill="#2b2520" d="m526 606.5-.5-.5-.5-.5-.5-.5v-2l-.5-.5-.5-.5v-1l-.5-.5-.5-.5v-1l-.5-.5-.5-.5v-1l-.5-.5-.5-.5v-2l-.5-.5-.5-.5v-2l-.5-.5-.5-.5v-4l.5-.5.5-.5v-1l.5-.5.5-.5v-2l.5-.5.5-.5v-1l.5-.5.5-.5v-1l.5-.5.5-.5v-2l.5-.5.5-.5v-1l.5-.5.5-.5v-1l.5-.5.5-.5v-2l.5-.5.5-.5v-1l.5-.5.5-.5v-2l.5-.5.5-.5v-1l.5-.5.5-.5v-1l.5-.5.5-.5v-1l.5-.5.5-.5v-1l.5-.5.5-.5v-1l.5-.5.5-.5v-1l.5-.5.5-.5v-2l.5-.5.5-.5v-1l.5-.5.5-.5v-1l.5-.5.5-.5v-1l.5-.5.5-.5v-1l.5-.5.5-.5v-2l.5-.5.5-.5v-1l.5-.5.5-.5v-1l.5-.5.5-.5v-1l.5-.5.5-.5v-1l.5-.5.5-.5v-1l.5-.5.5-.5v-1l.5-.5.5-.5v-1l.5-.5.5-.5v-1l.5-.5.5-.5v-1l.5-.5.5-.5v-1l.5-.5.5-.5v-2l.5-.5.5-.5v-1l.5-.5.5-.5v-1l.5-.5.5-.5v-1l.5-.5.5-.5v-1l.5-.5.5-.5v-1l.5-.5.5-.5v-1l.5-.5.5-.5v-1l.5-.5.5-.5v-1l.5-.5.5-.5v-1l.5-.5.5-.5v-1l.5-.5.5-.5.5-.5.5-.5v-1l.5-.5.5-.5v-1l.5-.5.5-.5v-1l.5-.5.5-.5v-1l.5-.5.5-.5v-2l.5-.5.5-.5v-1l.5-.5.5-.5.5-.5.5-.5v-1l.5-.5.5-.5v-1l.5-.5.5-.5v-2l.5-.5.5-.5.5-.5.5-.5v-1l.5-.5.5-.5v-1l.5-.5.5-.5v-1l.5-.5.5-.5v-1l.5-.5.5-.5v-1l.5-.5.5-.5.5-.5.5-.5v-1l.5-.5.5-.5v-1l.5-.5.5-.5v-1l.5-.5.5-.5v-1l.5-.5.5-.5v-1l.5-.5.5-.5v-1l.5-.5.5-.5v-1l.5-.5.5-.5v-1l.5-.5.5-.5v-1l.5-.5.5-.5v-1l.5-.5.5-.5v-1l.5-.5.5-.5v-1l.5-.5.5-.5v-1l.5-.5.5-.5v-1l.5-.5.5-.5.5-.5.5-.5v-1l-.5-.5-.5-.5v-1l-.5-.5-.5-.5v-1l-.5-.5-.5-.5v-1l-.5-.5-.5-.5v-1l-.5-.5-.5-.5v-1l-.5-.5-.5-.5v-1l-.5-.5-.5-.5v-2l-.5-.5-.5-.5v-1l-.5-.5-.5-.5v-1l-.5-.5-.5-.5v-2l-.5-.5-.5-.5v-1l-.5-.5-.5-.5v-2l-.5-.5-.5-.5v-2l-.5-.5-.5-.5v-2l-.5-.5-.5-.5v-2l-.5-.5-.5-.5v-2l-.5-.5-.5-.5v-2l-.5-.5-.5-.5v-2l-.5-.5-.5-.5v-2l-.5-.5-.5-.5v-2l-.5-.5-.5-.5v-2l-.5-.5-.5-.5v-3l.5-.5.5.5.5.5h2l.5.5.5.5h1l.5.5.5.5.5.5.5.5.5.5.5.5.5.5.5.5.5.5.5.5.5.5v1l.5.5.5.5.5.5.5.5v1l.5.5.5.5v1l.5.5.5.5.5.5.5.5v1l.5.5.5.5v1l.5.5.5.5v2l.5.5.5.5v1l.5.5.5.5v1l.5.5.5.5v1l.5.5.5.5v1l.5.5.5.5v2l.5.5.5.5v1l.5.5.5.5v1l.5.5.5.5v1l.5.5.5.5v1l.5.5.5.5.5.5.5-.5v-2l.5-.5.5-.5v-2l.5-.5.5-.5v-1l.5-.5.5-.5v-2l.5-.5.5-.5v-1l.5-.5.5-.5v-3l.5-.5.5-.5v-2l.5-.5.5-.5v-2l.5-.5.5-.5v-2l.5-.5.5-.5v-2l.5-.5.5-.5v-3l.5-.5.5-.5v-3l.5-.5.5-.5v-3l.5-.5.5-.5v-4l.5-.5.5-.5v-5l.5-.5.5-.5v-4l.5-.5.5-.5v-4l.5-.5.5-.5v-7l.5-.5.5-.5v-6l-.5-.5-.5-.5v-1l-.5-.5-.5-.5v-2l-.5-.5-.5-.5-.5-.5-.5-.5v-2l-.5-.5-.5-.5v-1l-.5-.5-.5-.5v-2l-.5-.5-.5-.5v-1l-.5-.5-.5-.5v-1l-.5-.5-.5-.5v-2l-.5-.5-.5-.5v-1l-.5-.5-.5-.5v-1l-.5-.5-.5-.5v-2l-.5-.5-.5-.5v-1l-.5-.5-.5-.5v-1l-.5-.5-.5-.5v-2l-.5-.5-.5-.5v-2l-.5-.5-.5-.5v-1l-.5-.5-.5-.5v-2l-.5-.5-.5-.5v-1l-.5-.5-.5-.5v-2l-.5-.5-.5-.5v-2l-.5-.5-.5-.5v-2l-.5-.5-.5-.5v-1l-.5-.5-.5-.5v-3l-.5-.5-.5-.5v-1l-.5-.5-.5-.5v-2l-.5-.5-.5-.5v-2l-.5-.5-.5-.5v-3l-.5-.5-.5-.5v-3l-.5-.5-.5-.5v-1l.5-.5.5-.5.5-.5.5.5.5.5h2l.5.5.5.5h1l.5.5.5.5h1l.5.5.5.5.5.5v1l.5.5.5.5.5.5.5.5v1l.5.5.5.5.5.5.5.5v1l.5.5.5.5v1l.5.5.5.5v1l.5.5.5.5v1l.5.5.5.5v1l.5.5.5.5v2l.5.5.5.5v1l.5.5.5.5v1l.5.5.5.5v1l.5.5.5.5v2l.5.5.5.5v1l.5.5.5.5v2l.5.5.5.5v1l.5.5.5.5v2l.5.5.5.5v2l.5.5.5.5v1l.5.5.5.5v2l.5.5.5.5v1l.5.5.5.5v2l.5.5.5-.5v-4l.5-.5.5-.5v-17l.5-.5.5-.5v-19l.5-.5.5-.5v-44l.5-.5.5-.5v-30l.5-.5.5-.5v-3l.5-.5h8l.5.5v17l.5.5.5.5v65l-.5.5-.5.5v27l-.5.5-.5.5v15l-.5.5-.5.5v11l-.5.5-.5.5v9l-.5.5-.5.5v7l-.5.5-.5.5v7l-.5.5-.5.5v5l-.5.5-.5.5v5l-.5.5-.5.5v4l-.5.5-.5.5v4l-.5.5-.5.5v3l-.5.5-.5.5v3l-.5.5-.5.5v3l-.5.5-.5.5v3l-.5.5-.5.5v2l-.5.5-.5.5v3l-.5.5-.5.5v2l-.5.5-.5.5v2l-.5.5-.5.5v2l-.5.5-.5.5v1l-.5.5-.5.5v3l-.5.5-.5.5v1l-.5.5-.5.5v2l-.5.5-.5.5v1l-.5.5-.5.5v2l-.5.5-.5.5v1l-.5.5-.5.5v2l-.5.5-.5.5v1l-.5.5-.5.5v1l-.5.5-.5.5v2l-.5.5-.5.5v1l-.5.5-.5.5v1l-.5.5-.5.5v1l-.5.5-.5.5v1l-.5.5-.5.5v1l-.5.5-.5.5v1l-.5.5-.5.5-.5.5-.5.5v2l-.5.5-.5.5v1l-.5.5-.5.5-.5.5-.5.5v1l-.5.5-.5.5v1l-.5.5-.5.5v1l-.5.5-.5.5v1l-.5.5-.5.5v1l-.5.5-.5.5v1l-.5.5-.5.5v1l-.5.5-.5.5v1l-.5.5-.5.5v1l-.5.5-.5.5-.5.5-.5.5v1l-.5.5-.5.5v1l-.5.5-.5.5v1l-.5.5-.5.5v1l-.5.5-.5.5v1l-.5.5-.5.5v1l-.5.5-.5.5v1l-.5.5-.5.5v1l-.5.5-.5.5v1l-.5.5-.5.5v1l-.5.5-.5.5v1l-.5.5-.5.5v1l-.5.5-.5.5v1l-.5.5-.5.5v1l-.5.5-.5.5v1l-.5.5-.5.5v1l-.5.5-.5.5v1l-.5.5-.5.5v1l-.5.5-.5.5v2l-.5.5-.5.5v1l-.5.5-.5.5v1l-.5.5-.5.5-.5.5-.5.5v2l-.5.5-.5.5v1l-.5.5-.5.5v1l-.5.5-.5.5v1l-.5.5-.5.5v1l-.5.5-.5.5v1l-.5.5-.5.5v1l-.5.5-.5.5v1l-.5.5-.5.5v1l-.5.5-.5.5v1l-.5.5-.5.5v1l-.5.5-.5.5v2l-.5.5-.5.5v1l-.5.5-.5.5v2l-.5.5-.5.5v1l-.5.5-.5.5v1l-.5.5-.5.5v1l-.5.5-.5.5v1l-.5.5-.5.5v1l-.5.5-.5.5v2l-.5.5-.5.5v1l-.5.5-.5.5v1l-.5.5-.5.5v1l-.5.5-.5.5v2l-.5.5-.5.5v1l-.5.5-.5.5v1l-.5.5-.5.5v1l-.5.5-.5.5v2l-.5.5-.5.5v1l-.5.5-.5.5v2l-.5.5-.5.5v1l-.5.5-.5.5v1l-.5.5-.5.5v2l-.5.5-.5.5v2l-.5.5-.5.5v1l-.5.5-.5.5v1l-.5.5-.5.5v1l-.5.5-.5.5v1l-.5.5-.5.5v2l-.5.5-.5.5zM418 247.5l-.5-.5-.5-.5-.5-.5v-4l-.5-.5-.5-.5v-10l.5-.5.5-.5v-5l.5-.5.5-.5v-2l.5-.5.5-.5v-1l.5-.5.5-.5v-2l.5-.5.5-.5.5-.5.5-.5v-1l.5-.5.5-.5v-1l.5-.5.5-.5.5-.5.5-.5.5-.5.5-.5.5-.5.5-.5.5-.5.5-.5.5-.5.5-.5.5-.5.5-.5.5-.5.5-.5.5-.5h1l.5-.5.5-.5h1l.5-.5.5-.5h1l.5-.5.5-.5.5-.5.5-.5h2l.5-.5.5-.5h2l.5-.5.5-.5h2l.5-.5.5-.5h4l.5.5v3l.5.5.5.5v16l-.5.5-.5.5v3l-.5.5-.5.5v1l-.5.5-.5.5v2l-.5.5-.5.5v1l-.5.5-.5.5v1l-.5.5-.5.5-.5.5-.5.5-.5.5-.5.5-.5.5-.5.5v1l-.5.5-.5.5-.5.5-.5.5-.5.5h-1l-.5.5-.5.5-.5.5-.5.5-.5.5-.5.5h-1l-.5.5-.5.5h-1l-.5.5-.5.5h-1l-.5.5-.5.5h-1l-.5.5-.5.5h-2l-.5.5-.5.5h-3l-.5.5-.5.5h-3l-.5.5z" /><path fill="#2b2520" d="M605 246.5h-4l-.5-.5-.5-.5h-3l-.5-.5-.5-.5h-2l-.5-.5-.5-.5h-1l-.5-.5-.5-.5h-1l-.5-.5-.5-.5h-1l-.5-.5-.5-.5-.5-.5-.5-.5h-1l-.5-.5-.5-.5-.5-.5-.5-.5-.5-.5-.5-.5-.5-.5-.5-.5-.5-.5-.5-.5-.5-.5-.5-.5-.5-.5-.5-.5-.5-.5v-1l-.5-.5-.5-.5-.5-.5-.5-.5v-1l-.5-.5-.5-.5v-1l-.5-.5-.5-.5v-1l-.5-.5-.5-.5v-2l-.5-.5-.5-.5v-5l-.5-.5-.5-.5v-13l.5-.5.5-.5v-3l.5-.5h4l.5.5.5.5h3l.5.5.5.5h1l.5.5.5.5h2l.5.5.5.5h1l.5.5.5.5h1l.5.5.5.5h1l.5.5.5.5.5.5.5.5.5.5.5.5.5.5.5.5h1l.5.5.5.5.5.5.5.5.5.5.5.5.5.5v1l.5.5.5.5.5.5.5.5v1l.5.5.5.5v1l.5.5.5.5v1l.5.5.5.5v2l.5.5.5.5v2l.5.5.5.5v9l.5.5.5.5v2l-.5.5-.5.5v6l-.5.5-.5.5v1zM641 381.5h-2l-.5-.5v-5l.5-.5.5-.5v-3l.5-.5.5-.5v-1l.5-.5.5-.5v-2l.5-.5.5-.5v-1l.5-.5.5-.5v-1l.5-.5.5-.5v-2l.5-.5.5-.5v-1l.5-.5.5-.5v-1l.5-.5.5-.5v-1l.5-.5.5-.5v-2l.5-.5.5-.5v-1l.5-.5.5-.5v-1l.5-.5.5-.5v-1l.5-.5.5-.5v-1l.5-.5.5-.5v-1l.5-.5.5-.5v-1l.5-.5.5-.5v-1l.5-.5.5-.5v-1l.5-.5.5-.5.5-.5.5-.5v-1l.5-.5.5-.5v-1l.5-.5.5-.5v-1l.5-.5.5-.5v-1l.5-.5.5-.5v-1l.5-.5.5-.5v-1l.5-.5.5-.5v-1l.5-.5.5-.5v-1l.5-.5.5-.5v-1l.5-.5.5-.5v-1l.5-.5.5-.5v-1l.5-.5.5-.5.5-.5.5-.5v-1l.5-.5.5-.5v-1l.5-.5.5-.5v-1l.5-.5.5-.5v-1l.5-.5.5-.5.5-.5.5-.5v-1l.5-.5.5-.5v-1l.5-.5.5-.5v-1l.5-.5.5-.5.5-.5.5-.5v-1l.5-.5.5-.5v-1l.5-.5.5-.5v-1l.5-.5.5-.5v-1l.5-.5.5-.5.5-.5.5-.5v-1l.5-.5.5-.5v-1l.5-.5.5-.5v-1l.5-.5.5-.5v-1l.5-.5.5-.5v-1l.5-.5.5-.5.5-.5.5-.5v-1l.5-.5.5-.5v-1l.5-.5.5-.5.5-.5.5-.5v-1l.5-.5.5-.5v-1l.5-.5.5-.5v-1l.5-.5.5-.5.5-.5.5-.5v-1l.5-.5.5-.5v-1l.5-.5.5-.5.5-.5.5-.5v-1l.5-.5.5-.5v-1l.5-.5.5-.5v-1l.5-.5.5-.5v-1l.5-.5.5-.5.5-.5.5-.5v-1l.5-.5.5-.5.5-.5.5-.5v-1l.5-.5.5-.5v-1l.5-.5.5-.5.5-.5.5-.5v-1l.5-.5.5-.5v-1l.5-.5.5-.5.5-.5.5-.5v-1l.5-.5.5-.5.5-.5.5-.5v-1l.5-.5.5-.5.5-.5.5-.5v-1l.5-.5.5-.5.5-.5.5-.5v-1l.5-.5.5-.5v-1l.5-.5.5-.5.5-.5.5-.5.5-.5.5-.5v-1l.5-.5.5-.5.5-.5.5-.5.5-.5.5-.5.5-.5.5-.5.5-.5.5-.5.5-.5.5-.5.5-.5h1l.5-.5.5-.5h3l.5-.5.5-.5.5.5v5l-.5.5-.5.5v1l-.5.5-.5.5v1l-.5.5-.5.5v1l-.5.5-.5.5v1l-.5.5-.5.5v1l-.5.5-.5.5v1l-.5.5-.5.5v1l-.5.5-.5.5v1l-.5.5-.5.5v1l-.5.5-.5.5-.5.5-.5.5v1l-.5.5-.5.5v1l-.5.5-.5.5v1l-.5.5-.5.5v1l-.5.5-.5.5v1l-.5.5-.5.5-.5.5-.5.5v1l-.5.5-.5.5v1l-.5.5-.5.5v1l-.5.5-.5.5v1l-.5.5-.5.5v1l-.5.5-.5.5-.5.5-.5.5v1l-.5.5-.5.5v1l-.5.5-.5.5v1l-.5.5-.5.5-.5.5-.5.5v1l-.5.5-.5.5v1l-.5.5-.5.5-.5.5-.5.5v1l-.5.5-.5.5v2l.5.5.5-.5.5-.5.5-.5.5-.5.5-.5.5-.5.5-.5.5-.5h1l.5-.5.5-.5.5-.5.5-.5h1l.5-.5.5-.5.5-.5.5-.5.5-.5.5-.5h1l.5-.5.5-.5.5-.5.5-.5.5-.5.5-.5h1l.5-.5.5-.5.5-.5.5-.5h1l.5-.5.5-.5.5-.5.5-.5.5-.5.5-.5h1l.5-.5.5-.5.5-.5.5-.5.5-.5.5-.5h1l.5-.5.5-.5.5-.5.5-.5h1l.5-.5.5-.5.5-.5.5-.5h1l.5-.5.5-.5h1l.5-.5.5-.5.5-.5.5-.5h1l.5-.5.5-.5.5-.5.5-.5h1l.5-.5.5-.5h1l.5-.5.5-.5.5-.5.5-.5h1l.5-.5.5-.5h1l.5-.5.5-.5h4l.5.5v5l-.5.5-.5.5v1l-.5.5-.5.5-.5.5-.5.5-.5.5-.5.5-.5.5-.5.5-.5.5-.5.5-.5.5-.5.5-.5.5-.5.5-.5.5-.5.5-.5.5-.5.5-.5.5-.5.5-.5.5-.5.5-.5.5h-1l-.5.5-.5.5-.5.5-.5.5-.5.5-.5.5-.5.5-.5.5-.5.5-.5.5h-1l-.5.5-.5.5-.5.5-.5.5-.5.5-.5.5h-1l-.5.5-.5.5-.5.5-.5.5-.5.5-.5.5h-1l-.5.5-.5.5-.5.5-.5.5h-1l-.5.5-.5.5-.5.5-.5.5h-1l-.5.5-.5.5-.5.5-.5.5h-1l-.5.5-.5.5-.5.5-.5.5h-1l-.5.5-.5.5-.5.5-.5.5h-1l-.5.5-.5.5-.5.5-.5.5h-1l-.5.5-.5.5-.5.5-.5.5h-1l-.5.5-.5.5-.5.5-.5.5h-1l-.5.5-.5.5h-1l-.5.5-.5.5-.5.5-.5.5h-1l-.5.5-.5.5-.5.5-.5.5h-1l-.5.5-.5.5-.5.5-.5.5h-1l-.5.5-.5.5-.5.5-.5.5h-1l-.5.5-.5.5-.5.5-.5.5-.5.5-.5.5-.5.5v1l-.5.5-.5.5v1l-.5.5-.5.5v1l-.5.5-.5.5v1l-.5.5-.5.5v1l-.5.5-.5.5-.5.5-.5.5v1l-.5.5-.5.5v1l-.5.5-.5.5v1l-.5.5-.5.5v1l-.5.5-.5.5-.5.5-.5.5v1l-.5.5-.5.5v1l-.5.5-.5.5v1l-.5.5-.5.5-.5.5-.5.5v1l-.5.5-.5.5v1l-.5.5-.5.5v1l-.5.5-.5.5-.5.5-.5.5v1l-.5.5-.5.5v1l-.5.5-.5.5v1l-.5.5-.5.5v1l-.5.5-.5.5v1l-.5.5-.5.5-.5.5-.5.5v1l-.5.5-.5.5v1l-.5.5-.5.5v1l-.5.5-.5.5v1l-.5.5-.5.5v1l-.5.5-.5.5-.5.5-.5.5v1l-.5.5-.5.5v1l-.5.5-.5.5v1l-.5.5-.5.5-.5.5-.5.5v1l-.5.5-.5.5v1l-.5.5-.5.5v1l-.5.5-.5.5v1l-.5.5-.5.5-.5.5-.5.5v1l-.5.5-.5.5v1l-.5.5-.5.5-.5.5-.5.5v1l-.5.5-.5.5-.5.5-.5.5-.5.5h-1l-.5.5-.5.5h-1l-.5.5zM384 381.5h-2l-.5-.5-.5-.5h-1l-.5-.5-.5-.5-.5-.5-.5-.5-.5-.5-.5-.5-.5-.5-.5-.5-.5-.5v-1l-.5-.5-.5-.5v-1l-.5-.5-.5-.5-.5-.5-.5-.5v-1l-.5-.5-.5-.5v-1l-.5-.5-.5-.5-.5-.5-.5-.5v-1l-.5-.5-.5-.5v-1l-.5-.5-.5-.5-.5-.5-.5-.5v-1l-.5-.5-.5-.5v-1l-.5-.5-.5-.5v-1l-.5-.5-.5-.5v-1l-.5-.5-.5-.5v-1l-.5-.5-.5-.5-.5-.5-.5-.5v-1l-.5-.5-.5-.5v-1l-.5-.5-.5-.5v-1l-.5-.5-.5-.5-.5-.5-.5-.5v-1l-.5-.5-.5-.5v-1l-.5-.5-.5-.5v-1l-.5-.5-.5-.5-.5-.5-.5-.5v-1l-.5-.5-.5-.5v-1l-.5-.5-.5-.5v-1l-.5-.5-.5-.5v-1l-.5-.5-.5-.5-.5-.5-.5-.5v-1l-.5-.5-.5-.5v-1l-.5-.5-.5-.5v-1l-.5-.5-.5-.5v-1l-.5-.5-.5-.5v-1l-.5-.5-.5-.5-.5-.5-.5-.5v-1l-.5-.5-.5-.5v-1l-.5-.5-.5-.5v-1l-.5-.5-.5-.5v-1l-.5-.5-.5-.5-.5-.5-.5-.5v-1l-.5-.5-.5-.5v-1l-.5-.5-.5-.5v-1l-.5-.5-.5-.5v-1l-.5-.5-.5-.5v-1l-.5-.5-.5-.5-.5-.5h-1l-.5-.5-.5-.5-.5-.5-.5-.5h-1l-.5-.5-.5-.5-.5-.5-.5-.5h-1l-.5-.5-.5-.5h-1l-.5-.5-.5-.5-.5-.5-.5-.5h-1l-.5-.5-.5-.5-.5-.5-.5-.5h-1l-.5-.5-.5-.5-.5-.5-.5-.5h-1l-.5-.5-.5-.5-.5-.5-.5-.5h-1l-.5-.5-.5-.5-.5-.5-.5-.5h-1l-.5-.5-.5-.5h-1l-.5-.5-.5-.5-.5-.5-.5-.5h-1l-.5-.5-.5-.5-.5-.5-.5-.5h-1l-.5-.5-.5-.5-.5-.5-.5-.5h-1l-.5-.5-.5-.5-.5-.5-.5-.5-.5-.5-.5-.5h-1l-.5-.5-.5-.5-.5-.5-.5-.5h-1l-.5-.5-.5-.5-.5-.5-.5-.5-.5-.5-.5-.5-.5-.5-.5-.5h-1l-.5-.5-.5-.5-.5-.5-.5-.5h-1l-.5-.5-.5-.5-.5-.5-.5-.5-.5-.5-.5-.5-.5-.5-.5-.5-.5-.5-.5-.5-.5-.5-.5-.5h-1l-.5-.5-.5-.5-.5-.5-.5-.5-.5-.5-.5-.5-.5-.5-.5-.5-.5-.5-.5-.5-.5-.5-.5-.5-.5-.5-.5-.5-.5-.5-.5-.5-.5-.5-.5-.5-.5-.5v-1l-.5-.5-.5-.5v-5l.5-.5h4l.5.5.5.5h1l.5.5.5.5h1l.5.5.5.5h1l.5.5.5.5.5.5.5.5h1l.5.5.5.5h1l.5.5.5.5.5.5.5.5h1l.5.5.5.5.5.5.5.5h1l.5.5.5.5.5.5.5.5h1l.5.5.5.5.5.5.5.5h1l.5.5.5.5.5.5.5.5h1l.5.5.5.5.5.5.5.5h1l.5.5.5.5.5.5.5.5.5.5.5.5h1l.5.5.5.5.5.5.5.5.5.5.5.5h1l.5.5.5.5.5.5.5.5.5.5.5.5h1l.5.5.5.5.5.5.5.5h1l.5.5.5.5.5.5.5.5.5.5.5.5h1l.5.5.5.5.5.5.5.5.5-.5v-1l-.5-.5-.5-.5v-1l-.5-.5-.5-.5-.5-.5-.5-.5v-1l-.5-.5-.5-.5v-1l-.5-.5-.5-.5v-1l-.5-.5-.5-.5-.5-.5-.5-.5v-1l-.5-.5-.5-.5v-1l-.5-.5-.5-.5v-1l-.5-.5-.5-.5-.5-.5-.5-.5v-1l-.5-.5-.5-.5v-1l-.5-.5-.5-.5v-1l-.5-.5-.5-.5-.5-.5-.5-.5v-1l-.5-.5-.5-.5v-1l-.5-.5-.5-.5v-1l-.5-.5-.5-.5v-1l-.5-.5-.5-.5-.5-.5-.5-.5v-1l-.5-.5-.5-.5v-1l-.5-.5-.5-.5v-1l-.5-.5-.5-.5v-1l-.5-.5-.5-.5v-1l-.5-.5-.5-.5v-1l-.5-.5-.5-.5v-1l-.5-.5-.5-.5v-1l-.5-.5-.5-.5-.5-.5-.5-.5v-1l-.5-.5-.5-.5v-1l-.5-.5-.5-.5v-2l-.5-.5-.5-.5v-3l.5-.5h4l.5.5.5.5h1l.5.5.5.5.5.5.5.5h1l.5.5v1l.5.5.5.5.5.5.5.5.5.5.5.5.5.5.5.5v1l.5.5.5.5.5.5.5.5v1l.5.5.5.5.5.5.5.5v1l.5.5.5.5.5.5.5.5v1l.5.5.5.5.5.5.5.5v1l.5.5.5.5.5.5.5.5v1l.5.5.5.5v1l.5.5.5.5.5.5.5.5v1l.5.5.5.5.5.5.5.5v1l.5.5.5.5v1l.5.5.5.5.5.5.5.5v1l.5.5.5.5v1l.5.5.5.5.5.5.5.5v1l.5.5.5.5v1l.5.5.5.5v1l.5.5.5.5.5.5.5.5v1l.5.5.5.5v1l.5.5.5.5.5.5.5.5v1l.5.5.5.5v1l.5.5.5.5v1l.5.5.5.5v1l.5.5.5.5.5.5.5.5v1l.5.5.5.5v1l.5.5.5.5v1l.5.5.5.5.5.5.5.5v1l.5.5.5.5v1l.5.5.5.5v1l.5.5.5.5.5.5.5.5v1l.5.5.5.5v1l.5.5.5.5v1l.5.5.5.5v1l.5.5.5.5.5.5.5.5v1l.5.5.5.5v1l.5.5.5.5v1l.5.5.5.5.5.5.5.5v1l.5.5.5.5v1l.5.5.5.5v1l.5.5.5.5v1l.5.5.5.5.5.5.5.5v1l.5.5.5.5v1l.5.5.5.5v1l.5.5.5.5v1l.5.5.5.5v1l.5.5.5.5v1l.5.5.5.5v1l.5.5.5.5v1l.5.5.5.5v1l.5.5.5.5v1l.5.5.5.5.5.5.5.5v1l.5.5.5.5v1l.5.5.5.5v2l.5.5.5.5.5.5.5.5v1l.5.5.5.5v1l.5.5.5.5v1l.5.5.5.5v1l.5.5.5.5v2l.5.5.5.5v1l.5.5.5.5v1l.5.5.5.5v1l.5.5.5.5v2l.5.5.5.5v1l.5.5.5.5v1l.5.5.5.5v2l.5.5.5.5v1l.5.5.5.5v2l.5.5.5.5v7zM372 268.5h-5l-.5-.5-.5-.5h-2l-.5-.5-.5-.5h-2l-.5-.5-.5-.5h-1l-.5-.5-.5-.5h-2l-.5-.5-.5-.5h-1l-.5-.5-.5-.5h-1l-.5-.5-.5-.5-.5-.5-.5-.5-.5-.5-.5-.5h-1l-.5-.5-.5-.5-.5-.5-.5-.5-.5-.5-.5-.5-.5-.5-.5-.5-.5-.5v-1l-.5-.5-.5-.5-.5-.5-.5-.5v-1l-.5-.5-.5-.5v-1l-.5-.5-.5-.5v-1l-.5-.5-.5-.5v-1l-.5-.5-.5-.5v-2l-.5-.5-.5-.5v-2l-.5-.5-.5-.5v-17l.5-.5.5-.5v-2l.5-.5h5l.5.5.5.5h2l.5.5.5.5h2l.5.5.5.5h2l.5.5.5.5h1l.5.5.5.5h1l.5.5.5.5.5.5.5.5h1l.5.5.5.5.5.5.5.5.5.5.5.5.5.5.5.5.5.5.5.5.5.5.5.5.5.5.5.5.5.5.5.5.5.5.5.5.5.5v1l.5.5.5.5.5.5.5.5v1l.5.5.5.5v1l.5.5.5.5v2l.5.5.5.5v3l.5.5.5.5v5l.5.5.5.5v7l-.5.5-.5.5v5l-.5.5-.5.5zM653 269.5h-2l-.5-.5v-3l-.5-.5-.5-.5v-15l.5-.5.5-.5v-4l.5-.5.5-.5v-2l.5-.5.5-.5v-1l.5-.5.5-.5v-1l.5-.5.5-.5v-1l.5-.5.5-.5.5-.5.5-.5v-1l.5-.5.5-.5.5-.5.5-.5.5-.5.5-.5.5-.5.5-.5.5-.5.5-.5.5-.5.5-.5.5-.5h1l.5-.5.5-.5.5-.5.5-.5.5-.5.5-.5h1l.5-.5.5-.5h1l.5-.5.5-.5h1l.5-.5.5-.5h2l.5-.5.5-.5h2l.5-.5.5-.5h2l.5-.5.5-.5h4l.5.5.5.5.5.5v10l.5.5.5.5-.5.5-.5.5v8l-.5.5-.5.5v2l-.5.5-.5.5v2l-.5.5-.5.5v1l-.5.5-.5.5v1l-.5.5-.5.5v1l-.5.5-.5.5-.5.5-.5.5v1l-.5.5-.5.5-.5.5-.5.5-.5.5-.5.5-.5.5-.5.5-.5.5-.5.5-.5.5-.5.5-.5.5h-1l-.5.5-.5.5-.5.5-.5.5h-1l-.5.5-.5.5h-1l-.5.5-.5.5h-1l-.5.5-.5.5h-1l-.5.5-.5.5h-2l-.5.5-.5.5h-2l-.5.5-.5.5h-3l-.5.5zM217 260.5h-16l-.5-.5-.5-.5h-3l-.5-.5-.5-.5h-2l-.5-.5-.5-.5h-1l-.5-.5-.5-.5h-1l-.5-.5-.5-.5h-1l-.5-.5-.5-.5h-1l-.5-.5-.5-.5-.5-.5-.5-.5h-1l-.5-.5-.5-.5-.5-.5-.5-.5-.5-.5-.5-.5-.5-.5-.5-.5h-1l-.5-.5-.5-.5-.5-.5v-1l-.5-.5-.5-.5v-1l.5-.5.5-.5.5-.5.5-.5.5-.5.5-.5.5-.5.5-.5.5-.5.5-.5.5-.5.5-.5.5-.5h1l.5-.5.5-.5.5-.5.5-.5.5-.5.5-.5h1l.5-.5.5-.5h1l.5-.5.5-.5h1l.5-.5.5-.5h1l.5-.5.5-.5h1l.5-.5.5-.5h2l.5-.5.5-.5h1l.5-.5.5-.5h4l.5-.5.5-.5h8l.5.5.5.5h3l.5.5.5.5h2l.5.5.5.5h2l.5.5.5.5h1l.5.5.5.5.5.5.5.5h1l.5.5.5.5.5.5.5.5h1l.5.5.5.5.5.5.5.5.5.5.5.5.5.5.5.5.5.5.5.5.5.5.5.5.5.5.5.5.5.5.5.5.5.5v1l.5.5.5.5-.5.5-.5.5-.5.5-.5.5-.5.5-.5.5-.5.5-.5.5-.5.5-.5.5-.5.5-.5.5-.5.5h-1l-.5.5-.5.5-.5.5-.5.5-.5.5-.5.5h-1l-.5.5-.5.5h-1l-.5.5-.5.5h-1l-.5.5-.5.5h-1l-.5.5-.5.5h-1l-.5.5-.5.5h-3l-.5.5zM822 260.5h-15l-.5-.5-.5-.5h-3l-.5-.5-.5-.5h-1l-.5-.5-.5-.5h-1l-.5-.5-.5-.5h-2l-.5-.5-.5-.5-.5-.5-.5-.5h-1l-.5-.5-.5-.5-.5-.5-.5-.5h-1l-.5-.5-.5-.5-.5-.5-.5-.5-.5-.5-.5-.5-.5-.5-.5-.5-.5-.5-.5-.5-.5-.5-.5-.5-.5-.5-.5-.5-.5-.5v-1l.5-.5.5-.5.5-.5.5-.5.5-.5.5-.5.5-.5.5-.5.5-.5.5-.5.5-.5.5-.5.5-.5.5-.5.5-.5.5-.5.5-.5.5-.5.5-.5.5-.5.5-.5h1l.5-.5.5-.5.5-.5.5-.5h1l.5-.5.5-.5h1l.5-.5.5-.5h1l.5-.5.5-.5h2l.5-.5.5-.5h3l.5-.5.5-.5h8l.5.5.5.5h4l.5.5.5.5h2l.5.5.5.5h2l.5.5.5.5h1l.5.5.5.5h1l.5.5.5.5h1l.5.5.5.5h1l.5.5.5.5.5.5.5.5h1l.5.5.5.5.5.5.5.5.5.5.5.5h1l.5.5.5.5.5.5.5.5.5.5.5.5.5.5.5.5.5.5v3l-.5.5-.5.5-.5.5-.5.5-.5.5-.5.5-.5.5-.5.5-.5.5-.5.5-.5.5h-1l-.5.5-.5.5-.5.5-.5.5h-1l-.5.5-.5.5h-1l-.5.5-.5.5-.5.5-.5.5h-2l-.5.5-.5.5h-1l-.5.5-.5.5h-2l-.5.5-.5.5h-3l-.5.5zM455 291.5h-15l-.5-.5-.5-.5-.5-.5v-5l.5-.5.5-.5v-4l.5-.5.5-.5v-2l.5-.5.5-.5v-1l.5-.5.5-.5v-1l.5-.5.5-.5v-1l.5-.5.5-.5.5-.5.5-.5v-1l.5-.5.5-.5.5-.5.5-.5v-1l.5-.5.5-.5.5-.5.5-.5.5-.5.5-.5.5-.5.5-.5.5-.5h1l.5-.5.5-.5.5-.5.5-.5.5-.5.5-.5h1l.5-.5.5-.5h1l.5-.5.5-.5h1l.5-.5.5-.5h2l.5-.5.5-.5h3l.5-.5.5-.5h5l.5-.5.5-.5h5l.5.5.5.5h6l.5.5.5.5.5.5-.5.5-.5.5v6l-.5.5-.5.5v2l-.5.5-.5.5v1l-.5.5-.5.5v2l-.5.5-.5.5v1l-.5.5-.5.5v1l-.5.5-.5.5-.5.5-.5.5v1l-.5.5-.5.5-.5.5-.5.5-.5.5-.5.5-.5.5-.5.5-.5.5-.5.5-.5.5-.5.5-.5.5-.5.5-.5.5-.5.5-.5.5-.5.5-.5.5h-1l-.5.5-.5.5h-1l-.5.5-.5.5h-1l-.5.5-.5.5h-2l-.5.5-.5.5h-2l-.5.5-.5.5h-3l-.5.5zM584 291.5h-17l-.5-.5-.5-.5h-3l-.5-.5-.5-.5h-2l-.5-.5-.5-.5h-1l-.5-.5-.5-.5h-1l-.5-.5-.5-.5h-1l-.5-.5-.5-.5-.5-.5-.5-.5h-1l-.5-.5-.5-.5-.5-.5-.5-.5-.5-.5-.5-.5-.5-.5-.5-.5-.5-.5-.5-.5-.5-.5-.5-.5-.5-.5-.5-.5-.5-.5-.5-.5-.5-.5v-1l-.5-.5-.5-.5v-1l-.5-.5-.5-.5-.5-.5-.5-.5v-1l-.5-.5-.5-.5v-2l-.5-.5-.5-.5v-1l-.5-.5-.5-.5v-3l-.5-.5-.5-.5v-7l.5-.5h18l.5.5.5.5h3l.5.5.5.5h3l.5.5.5.5h1l.5.5.5.5h1l.5.5.5.5.5.5.5.5h1l.5.5.5.5.5.5.5.5.5.5.5.5.5.5.5.5.5.5.5.5.5.5.5.5.5.5.5.5.5.5v1l.5.5.5.5.5.5.5.5v1l.5.5.5.5v1l.5.5.5.5v1l.5.5.5.5v1l.5.5.5.5v2l.5.5.5.5v4l.5.5.5.5v6zM450 776.5h-4l-.5-.5.5-.5.5-.5.5-.5.5-.5.5-.5.5-.5.5-.5.5-.5.5-.5h1l.5-.5.5-.5.5-.5.5-.5.5-.5.5-.5.5-.5.5-.5.5-.5.5-.5.5-.5.5-.5.5-.5.5-.5.5-.5.5-.5.5-.5.5-.5.5-.5.5-.5.5-.5v-1l.5-.5.5-.5.5-.5.5-.5.5-.5.5-.5v-1l.5-.5.5-.5.5-.5.5-.5v-1l.5-.5.5-.5.5-.5.5-.5v-1l.5-.5.5-.5v-1l.5-.5.5-.5v-2l.5-.5.5-.5v-1l.5-.5.5-.5v-1l.5-.5.5-.5v-2l.5-.5.5-.5v-2l.5-.5.5-.5v-3l.5-.5.5-.5v-4l.5-.5.5-.5v-5l.5-.5.5-.5v-10l.5-.5.5-.5v-11l-.5-.5-.5-.5v-12l-.5-.5-.5-.5v-7l-.5-.5-.5-.5v-5l-.5-.5-.5-.5v-4l-.5-.5-.5-.5v-3l-.5-.5-.5-.5v-4l-.5-.5-.5-.5v-3l-.5-.5-.5-.5v-3l-.5-.5-.5-.5v-3l-.5-.5-.5-.5v-3l-.5-.5-.5-.5v-3l-.5-.5-.5-.5v-2l-.5-.5-.5-.5v-2l-.5-.5-.5-.5v-2l-.5-.5-.5-.5v-2l-.5-.5-.5-.5v-2l-.5-.5-.5-.5v-3l-.5-.5-.5-.5v-2l-.5-.5-.5-.5v-2l-.5-.5-.5-.5v-2l-.5-.5-.5-.5v-2l-.5-.5-.5-.5v-2l-.5-.5-.5-.5v-2l-.5-.5-.5-.5v-2l-.5-.5-.5-.5v-2l-.5-.5-.5-.5v-1l-.5-.5-.5-.5v-2l-.5-.5-.5-.5v-2l-.5-.5-.5-.5v-1l-.5-.5-.5-.5v-2l-.5-.5-.5-.5v-2l-.5-.5-.5-.5v-1l-.5-.5-.5-.5v-2l-.5-.5-.5-.5v-2l-.5-.5-.5-.5v-1l-.5-.5-.5-.5v-2l-.5-.5-.5-.5v-1l-.5-.5-.5-.5v-2l-.5-.5-.5-.5v-1l-.5-.5-.5-.5v-2l-.5-.5-.5-.5v-1l-.5-.5-.5-.5v-2l-.5-.5-.5-.5v-1l-.5-.5-.5-.5v-1l-.5-.5-.5-.5v-2l-.5-.5-.5-.5v-1l-.5-.5-.5-.5v-1l-.5-.5-.5-.5v-2l-.5-.5-.5-.5v-1l-.5-.5-.5-.5v-1l-.5-.5-.5-.5v-2l-.5-.5-.5-.5v-1l-.5-.5-.5-.5v-1l-.5-.5-.5-.5v-2l-.5-.5-.5-.5v-1l-.5-.5-.5-.5v-1l-.5-.5-.5-.5v-1l-.5-.5-.5-.5v-1l-.5-.5-.5-.5v-1l-.5-.5-.5-.5v-1l-.5-.5-.5-.5v-1l-.5-.5-.5-.5v-1l-.5-.5-.5-.5v-2l-.5-.5-.5-.5v-1l-.5-.5-.5-.5v-1l-.5-.5-.5-.5v-1l-.5-.5-.5-.5v-1l-.5-.5-.5-.5v-1l-.5-.5-.5-.5v-1l-.5-.5-.5-.5v-1l-.5-.5-.5-.5v-1l-.5-.5-.5-.5v-1l-.5-.5-.5-.5v-1l-.5-.5-.5-.5v-1l-.5-.5-.5-.5v-1l-.5-.5-.5-.5v-1l-.5-.5-.5-.5v-1l-.5-.5-.5-.5-.5-.5-.5-.5v-2l-.5-.5-.5-.5-.5-.5-.5-.5v-1l-.5-.5-.5-.5v-1l-.5-.5-.5-.5v-1l-.5-.5-.5-.5v-1l-.5-.5-.5-.5v-1l-.5-.5-.5-.5v-1l-.5-.5-.5-.5v-1l-.5-.5-.5-.5v-1l-.5-.5-.5-.5v-1l-.5-.5-.5-.5-.5-.5-.5-.5v-1l-.5-.5-.5-.5v-1l-.5-.5-.5-.5v-1l-.5-.5-.5-.5-.5-.5-.5-.5v-1l-.5-.5-.5-.5v-1l-.5-.5-.5-.5v-1l-.5-.5-.5-.5v-1l-.5-.5-.5-.5v-1l-.5-.5-.5-.5-.5-.5-.5-.5v-1l-.5-.5-.5-.5v-1l-.5-.5-.5-.5v-1l-.5-.5-.5-.5v-1l-.5-.5-.5-.5-.5-.5-.5-.5-.5-.5-.5-.5-.5-.5-.5-.5-.5-.5h-1l-.5-.5-.5-.5-.5-.5-.5-.5h-1l-.5-.5-.5-.5-.5-.5-.5-.5-.5-.5-.5-.5-.5-.5-.5-.5h-1l-.5-.5-.5-.5-.5-.5-.5-.5-.5-.5-.5-.5h-1l-.5-.5-.5-.5-.5-.5-.5-.5-.5-.5-.5-.5h-1l-.5-.5-.5-.5-.5-.5-.5-.5-.5-.5-.5-.5h-1l-.5-.5-.5-.5-.5-.5-.5-.5h-1l-.5-.5-.5-.5-.5-.5-.5-.5-.5-.5-.5-.5h-1l-.5-.5-.5-.5-.5-.5-.5-.5-.5-.5-.5-.5h-1l-.5-.5-.5-.5-.5-.5-.5-.5h-1l-.5-.5-.5-.5h-1l-.5-.5-.5-.5h-1l-.5-.5-.5-.5h-2l-.5.5-.5.5-.5.5-.5.5-.5.5-.5.5-.5.5v1l-.5.5-.5.5-.5.5-.5.5-.5.5-.5.5-.5.5-.5.5-.5.5-.5.5-.5.5-.5.5-.5.5-.5.5-.5.5-.5.5-.5.5h-1l-.5.5-.5.5-.5.5-.5.5h-1l-.5.5-.5.5-.5.5-.5.5h-1l-.5.5-.5.5h-2l-.5.5-.5.5h-2l-.5.5-.5.5h-17l-.5-.5-.5-.5h-4l-.5-.5-.5-.5h-2l-.5-.5-.5-.5h-3l-.5-.5-.5-.5h-1l-.5-.5-.5-.5h-2l-.5-.5-.5-.5h-1l-.5-.5-.5-.5-.5-.5v-1l.5-.5.5-.5v-1l.5-.5.5-.5.5-.5.5-.5v-1l.5-.5.5-.5.5-.5.5-.5v-1l.5-.5.5-.5.5-.5.5-.5.5-.5.5-.5.5-.5.5-.5.5-.5.5-.5.5-.5.5-.5v-1l.5-.5.5-.5.5-.5.5-.5.5-.5.5-.5.5-.5.5-.5.5-.5h1l.5-.5.5-.5.5-.5.5-.5.5-.5.5-.5.5-.5.5-.5h1l.5-.5.5-.5.5-.5.5-.5h1l.5-.5.5-.5h2l.5-.5.5-.5h1l.5-.5.5-.5h3l.5-.5.5-.5h4l.5-.5.5-.5h5l.5.5.5.5h4l.5.5.5.5h2l.5.5.5.5h2l.5.5.5.5h2l.5.5.5.5h1l.5.5.5.5h1l.5.5.5.5h1l.5.5.5.5h1l.5.5.5.5h1l.5.5.5.5h2l.5.5.5.5h1l.5.5.5.5h1l.5.5.5.5.5.5.5.5h1l.5.5.5.5h1l.5.5.5.5h1l.5.5.5.5.5.5.5.5h1l.5.5.5.5h1l.5.5.5.5.5.5.5.5.5-.5-.5-.5-.5-.5v-1l-.5-.5-.5-.5-.5-.5-.5-.5v-1l-.5-.5-.5-.5-.5-.5-.5-.5v-1l-.5-.5-.5-.5-.5-.5-.5-.5v-1l-.5-.5-.5-.5-.5-.5-.5-.5v-1l-.5-.5-.5-.5-.5-.5-.5-.5v-1l-.5-.5-.5-.5-.5-.5-.5-.5-.5-.5-.5-.5v-1l-.5-.5-.5-.5-.5-.5-.5-.5v-1l-.5-.5-.5-.5-.5-.5-.5-.5-.5-.5h-2l-.5-.5-.5-.5h-1l-.5-.5-.5-.5h-1l-.5-.5-.5-.5h-1l-.5-.5-.5-.5h-1l-.5-.5-.5-.5h-1l-.5-.5-.5-.5h-1l-.5-.5-.5-.5h-1l-.5-.5-.5-.5h-1l-.5-.5-.5-.5h-2l-.5-.5-.5-.5h-1l-.5-.5-.5-.5h-1l-.5-.5-.5-.5h-1l-.5-.5-.5-.5h-1l-.5-.5-.5-.5h-1l-.5-.5-.5-.5h-1l-.5-.5-.5-.5h-1l-.5-.5-.5-.5h-1l-.5-.5-.5-.5h-1l-.5-.5-.5-.5h-1l-.5-.5-.5-.5h-1l-.5-.5-.5-.5-.5-.5-.5-.5h-1l-.5-.5-.5-.5h-1l-.5-.5-.5-.5h-1l-.5-.5-.5-.5h-1l-.5-.5-.5-.5h-1l-.5-.5-.5-.5-.5-.5-.5-.5h-1l-.5-.5-.5-.5h-1l-.5-.5-.5-.5-.5-.5-.5-.5h-1l-.5-.5-.5-.5-.5-.5-.5-.5h-1l-.5-.5-.5-.5-.5-.5-.5-.5-.5-.5-.5-.5-.5-.5-.5-.5-.5-.5-.5-.5-.5-.5v-1l-.5-.5-.5-.5v-2l.5-.5h7l.5.5.5.5h2l.5.5.5.5h2l.5.5.5.5h2l.5.5.5.5h1l.5.5.5.5h2l.5.5.5.5h1l.5.5.5.5h2l.5.5.5.5h1l.5.5.5.5h1l.5.5.5.5h1l.5.5.5.5h1l.5.5.5.5h1l.5.5.5.5h1l.5.5.5.5h1l.5.5.5.5h1l.5.5.5.5h1l.5.5.5.5h1l.5.5.5.5h1l.5.5.5.5h1l.5.5.5.5h1l.5.5.5.5h1l.5-.5-.5-.5-.5-.5-.5-.5-.5-.5v-1l-.5-.5-.5-.5-.5-.5-.5-.5-.5-.5-.5-.5v-1l-.5-.5-.5-.5-.5-.5-.5-.5-.5-.5-.5-.5-.5-.5-.5-.5v-1l-.5-.5-.5-.5-.5-.5-.5-.5-.5-.5-.5-.5-.5-.5-.5-.5-.5-.5-.5-.5v-1l-.5-.5-.5-.5-.5-.5-.5-.5-.5-.5-.5-.5-.5-.5-.5-.5v-1l-.5-.5-.5-.5-.5-.5-.5-.5-.5-.5-.5-.5-.5-.5-.5-.5-.5-.5-.5-.5-.5-.5-.5-.5v-1l-.5-.5-.5-.5-.5-.5-.5-.5-.5-.5-.5-.5-.5-.5-.5-.5-.5-.5-.5-.5-.5-.5-.5-.5v-1l-.5-.5-.5-.5-.5-.5-.5-.5-.5-.5-.5-.5-.5-.5-.5-.5-.5-.5-.5-.5-.5-.5-.5-.5-.5-.5-.5-.5-.5-.5-.5-.5v-1l-.5-.5-.5-.5-.5-.5-.5-.5-.5-.5-.5-.5-.5-.5-.5-.5-.5-.5-.5-.5-.5-.5-.5-.5v-1l-.5-.5-.5-.5-.5-.5-.5-.5-.5-.5-.5-.5-.5-.5-.5-.5-.5-.5-.5-.5-.5-.5-.5-.5-.5-.5-.5-.5v-1l-.5-.5-.5-.5v-3l.5-.5h5l.5.5.5.5h1l.5.5.5.5h1l.5.5.5.5h1l.5.5.5.5.5.5.5.5.5.5.5.5.5.5.5.5.5.5.5.5.5.5.5.5.5.5.5.5.5.5.5.5.5.5.5.5.5.5.5.5.5.5.5.5.5.5.5.5.5.5.5.5.5.5.5.5h1l.5.5v1l.5.5.5.5.5.5.5.5.5.5.5.5.5.5.5.5.5.5.5.5.5.5.5.5.5.5.5.5.5.5.5.5.5.5.5.5.5.5.5.5.5.5.5.5.5.5.5.5v1l.5.5.5.5.5.5.5.5.5.5.5.5.5.5.5.5.5.5.5.5.5.5.5.5.5.5.5.5v1l.5.5.5.5.5.5.5.5.5.5.5.5.5.5.5.5.5.5.5.5v1l.5.5.5.5.5.5.5.5.5.5.5.5.5.5.5.5.5.5.5.5.5.5.5.5v1l.5.5.5.5.5.5.5.5.5.5.5.5v1l.5.5.5.5.5.5.5.5.5.5.5.5.5.5.5.5v1l.5.5.5.5.5.5.5.5.5.5.5.5.5.5.5.5v1l.5.5.5.5.5.5.5.5.5.5.5.5.5.5.5.5v1l.5.5.5.5.5.5.5.5v1l.5.5.5.5.5.5.5.5.5.5.5.5v1l.5.5.5.5.5.5.5.5.5.5.5.5v1l.5.5.5.5.5.5.5.5.5.5.5.5v1l.5.5.5.5.5.5.5.5v1l.5.5.5.5.5.5.5.5v1l.5.5.5.5.5.5.5.5.5.5.5.5v1l.5.5.5.5.5.5.5.5v1l.5.5.5.5v1l.5.5.5.5.5.5.5.5.5.5.5.5v1l.5.5.5.5.5.5.5.5v1l.5.5.5.5v1l.5.5.5.5.5.5.5.5.5.5.5.5v1l.5.5.5.5.5.5.5.5v1l.5.5.5.5.5.5.5.5v1l.5.5.5.5.5.5.5.5v1l.5.5.5.5v1l.5.5.5.5v1l.5.5.5.5.5.5.5.5v1l.5.5.5.5.5.5.5.5v1l.5.5.5.5.5.5.5.5v1l.5.5.5.5v1l.5.5.5.5.5.5.5.5v1l.5.5.5.5v1l.5.5.5.5.5.5.5.5v1l.5.5.5.5v1l.5.5.5.5v1l.5.5.5.5.5.5.5.5v1l.5.5.5.5v1l.5.5.5.5v1l.5.5.5.5.5.5.5.5v1l.5.5.5.5v1l.5.5.5.5v1l.5.5.5.5v1l.5.5.5.5.5.5.5.5v1l.5.5.5.5v1l.5.5.5.5v1l.5.5.5.5v1l.5.5.5.5.5.5.5.5v1l.5.5.5.5v1l.5.5.5.5v1l.5.5.5.5v1l.5.5.5.5v1l.5.5.5.5v1l.5.5.5.5v1l.5.5.5.5v1l.5.5.5.5.5.5.5.5v1l.5.5.5.5v1l.5.5.5.5v1l.5.5.5.5v1l.5.5.5.5v1l.5.5.5.5v1l.5.5.5.5v1l.5.5.5.5v1l.5.5.5.5v1l.5.5.5.5v1l.5.5.5.5v1l.5.5.5.5v1l.5.5.5.5v1l.5.5.5.5v1l.5.5.5.5v1l.5.5.5.5v1l.5.5.5.5v1l.5.5.5.5v1l.5.5.5.5v2l.5.5.5.5v1l.5.5.5.5v1l.5.5.5.5v1l.5.5.5.5v1l.5.5.5.5v1l.5.5.5.5v2l.5.5.5.5v1l.5.5.5.5v1l.5.5.5.5v1l.5.5.5.5v1l.5.5.5.5v2l.5.5.5.5v1l.5.5.5.5v1l.5.5.5.5v1l.5.5.5.5v2l.5.5.5.5v1l.5.5.5.5v2l.5.5.5.5v1l.5.5.5.5v1l.5.5.5.5v1l.5.5.5.5v2l.5.5.5.5v1l.5.5.5.5v2l.5.5.5.5v1l.5.5.5.5v2l.5.5.5.5v1l.5.5.5.5v2l.5.5.5.5v1l.5.5.5.5v2l.5.5.5.5v2l.5.5.5.5v1l.5.5.5.5v2l.5.5.5.5v2l.5.5.5.5v1l.5.5.5.5v2l.5.5.5.5v2l.5.5.5.5v2l.5.5.5.5v2l.5.5.5.5v2l.5.5.5.5v1l.5.5.5.5v2l.5.5.5.5v2l.5.5.5.5v2l.5.5.5.5v3l.5.5.5.5v3l.5.5.5.5v2l.5.5.5.5v2l.5.5.5.5v2l.5.5.5.5v3l.5.5.5.5v3l.5.5.5.5v3l.5.5.5.5v2l.5.5.5.5v4l.5.5.5.5v3l.5.5.5.5v4l.5.5.5.5v5l.5.5.5.5v4l.5.5.5.5v6l.5.5.5.5v9l.5.5.5.5v26l-.5.5-.5.5v7l-.5.5-.5.5v4l-.5.5-.5.5v2l-.5.5-.5.5v3l-.5.5-.5.5v2l-.5.5-.5.5v1l-.5.5-.5.5v1l-.5.5-.5.5v1l-.5.5-.5.5v1l-.5.5-.5.5v1l-.5.5-.5.5v1l-.5.5-.5.5-.5.5-.5.5v1l-.5.5-.5.5-.5.5-.5.5-.5.5-.5.5-.5.5-.5.5-.5.5-.5.5-.5.5-.5.5-.5.5-.5.5-.5.5-.5.5-.5.5-.5.5-.5.5-.5.5-.5.5h-1l-.5.5-.5.5-.5.5-.5.5h-1l-.5.5-.5.5-.5.5-.5.5h-1l-.5.5-.5.5h-1l-.5.5-.5.5h-1l-.5.5-.5.5h-2l-.5.5-.5.5h-2l-.5.5-.5.5h-3l-.5.5zM683 789.5h-12l-.5-.5-.5-.5h-8l-.5-.5-.5-.5h-6l-.5-.5-.5-.5h-3l-.5-.5-.5-.5h-3l-.5-.5-.5-.5h-3l-.5-.5-.5-.5h-3l-.5-.5-.5-.5h-2l-.5-.5-.5-.5h-2l-.5-.5-.5-.5h-2l-.5-.5-.5-.5h-1l-.5-.5-.5-.5h-2l-.5-.5-.5-.5h-1l-.5-.5-.5-.5h-2l-.5-.5-.5-.5h-1l-.5-.5-.5-.5h-1l-.5-.5-.5-.5h-1l-.5-.5-.5-.5h-1l-.5-.5-.5-.5h-1l-.5-.5-.5-.5h-1l-.5-.5-.5-.5-.5-.5-.5-.5h-1l-.5-.5-.5-.5-.5-.5-.5-.5h-1l-.5-.5-.5-.5-.5-.5-.5-.5h-1l-.5-.5-.5-.5-.5-.5-.5-.5h-1l-.5-.5-.5-.5-.5-.5-.5-.5-.5-.5-.5-.5h-1l-.5-.5-.5-.5-.5-.5-.5-.5-.5-.5-.5-.5-.5-.5-.5-.5-.5-.5-.5-.5h-1l-.5-.5-.5-.5-.5-.5-.5-.5-.5-.5-.5-.5-.5-.5-.5-.5-.5-.5-.5-.5-.5-.5-.5-.5-.5-.5-.5-.5-.5-.5-.5-.5-.5-.5-.5-.5-.5-.5v-1l-.5-.5-.5-.5-.5-.5-.5-.5-.5-.5-.5-.5-.5-.5-.5-.5v-1l-.5-.5-.5-.5-.5-.5-.5-.5-.5-.5-.5-.5v-1l-.5-.5-.5-.5-.5-.5-.5-.5-.5-.5-.5-.5v-1l-.5-.5-.5-.5v-1l-.5-.5-.5-.5-.5-.5-.5-.5v-1l-.5-.5-.5-.5v-1l-.5-.5-.5-.5-.5-.5-.5-.5v-1l-.5-.5-.5-.5v-1l-.5-.5-.5-.5v-1l-.5-.5-.5-.5v-1l-.5-.5-.5-.5v-1l-.5-.5-.5-.5v-2l-.5-.5-.5-.5v-1l-.5-.5-.5-.5v-2l-.5-.5-.5-.5v-1l-.5-.5-.5-.5v-2l-.5-.5-.5-.5v-2l-.5-.5-.5-.5v-3l-.5-.5-.5-.5v-3l-.5-.5-.5-.5v-2l-.5-.5-.5-.5v-4l-.5-.5-.5-.5v-5l-.5-.5-.5-.5v-12l-.5-.5-.5-.5v-12l.5-.5.5-.5v-11l.5-.5.5-.5v-7l.5-.5.5-.5v-5l.5-.5.5-.5v-4l.5-.5.5-.5v-3l.5-.5.5-.5v-4l.5-.5.5-.5v-3l.5-.5.5-.5v-3l.5-.5.5-.5v-2l.5-.5.5-.5v-2l.5-.5.5-.5v-3l.5-.5.5-.5v-2l.5-.5.5-.5v-2l.5-.5.5-.5v-2l.5-.5.5-.5v-2l.5-.5.5-.5v-2l.5-.5.5-.5v-2l.5-.5.5-.5v-1l.5-.5.5-.5v-2l.5-.5.5-.5v-1l.5-.5.5-.5v-2l.5-.5.5-.5v-1l.5-.5.5-.5v-2l.5-.5.5-.5v-2l.5-.5.5-.5v-2l.5-.5.5-.5v-1l.5-.5.5-.5v-1l.5-.5.5-.5v-2l.5-.5.5-.5v-1l.5-.5.5-.5v-1l.5-.5.5-.5v-2l.5-.5.5-.5v-1l.5-.5.5-.5v-1l.5-.5.5-.5v-2l.5-.5.5-.5v-1l.5-.5.5-.5v-1l.5-.5.5-.5v-1l.5-.5.5-.5v-2l.5-.5.5-.5v-1l.5-.5.5-.5v-1l.5-.5.5-.5v-1l.5-.5.5-.5v-1l.5-.5.5-.5v-1l.5-.5.5-.5v-1l.5-.5.5-.5v-1l.5-.5.5-.5v-1l.5-.5.5-.5v-2l.5-.5.5-.5v-1l.5-.5.5-.5v-1l.5-.5.5-.5v-1l.5-.5.5-.5v-1l.5-.5.5-.5v-1l.5-.5.5-.5v-1l.5-.5.5-.5v-1l.5-.5.5-.5v-1l.5-.5.5-.5v-1l.5-.5.5-.5v-1l.5-.5.5-.5v-1l.5-.5.5-.5.5-.5.5-.5v-1l.5-.5.5-.5v-1l.5-.5.5-.5v-1l.5-.5.5-.5v-1l.5-.5.5-.5v-1l.5-.5.5-.5v-1l.5-.5.5-.5v-1l.5-.5.5-.5v-1l.5-.5.5-.5.5-.5.5-.5v-1l.5-.5.5-.5v-1l.5-.5.5-.5v-1l.5-.5.5-.5v-1l.5-.5.5-.5v-1l.5-.5.5-.5v-1l.5-.5.5-.5.5-.5.5-.5v-1l.5-.5.5-.5v-1l.5-.5.5-.5v-1l.5-.5.5-.5v-1l.5-.5.5-.5v-1l.5-.5.5-.5.5-.5.5-.5v-1l.5-.5.5-.5v-1l.5-.5.5-.5.5-.5.5-.5v-1l.5-.5.5-.5v-1l.5-.5.5-.5v-1l.5-.5.5-.5v-1l.5-.5.5-.5.5-.5.5-.5v-1l.5-.5.5-.5.5-.5.5-.5v-1l.5-.5.5-.5v-1l.5-.5.5-.5.5-.5.5-.5v-1l.5-.5.5-.5v-1l.5-.5.5-.5.5-.5.5-.5v-1l.5-.5.5-.5.5-.5.5-.5v-1l.5-.5.5-.5.5-.5.5-.5v-1l.5-.5.5-.5v-1l.5-.5.5-.5.5-.5.5-.5v-1l.5-.5.5-.5v-1l.5-.5.5-.5.5-.5.5-.5v-1l.5-.5.5-.5.5-.5.5-.5v-1l.5-.5.5-.5.5-.5.5-.5v-1l.5-.5.5-.5.5-.5.5-.5v-1l.5-.5.5-.5.5-.5.5-.5v-1l.5-.5.5-.5.5-.5.5-.5v-1l.5-.5.5-.5.5-.5.5-.5v-1l.5-.5.5-.5.5-.5.5-.5.5-.5.5-.5v-1l.5-.5.5-.5.5-.5.5-.5v-1l.5-.5.5-.5.5-.5.5-.5v-1l.5-.5.5-.5.5-.5.5-.5v-1l.5-.5.5-.5.5-.5.5-.5.5-.5.5-.5.5-.5.5-.5v-1l.5-.5.5-.5.5-.5.5-.5.5-.5.5-.5v-1l.5-.5.5-.5.5-.5.5-.5v-1l.5-.5.5-.5.5-.5.5-.5.5-.5.5-.5v-1l.5-.5.5-.5.5-.5.5-.5.5-.5.5-.5v-1l.5-.5.5-.5.5-.5.5-.5.5-.5.5-.5.5-.5.5-.5v-1l.5-.5.5-.5.5-.5.5-.5.5-.5.5-.5.5-.5.5-.5v-1l.5-.5.5-.5.5-.5.5-.5.5-.5.5-.5.5-.5.5-.5v-1l.5-.5.5-.5.5-.5.5-.5.5-.5.5-.5.5-.5.5-.5.5-.5.5-.5v-1l.5-.5.5-.5.5-.5.5-.5.5-.5.5-.5.5-.5.5-.5.5-.5.5-.5.5-.5.5-.5v-1l.5-.5.5-.5.5-.5.5-.5.5-.5.5-.5.5-.5.5-.5.5-.5.5-.5.5-.5.5-.5.5-.5.5-.5.5-.5.5-.5.5-.5.5-.5v-1l.5-.5.5-.5.5-.5.5-.5.5-.5.5-.5.5-.5.5-.5.5-.5.5-.5.5-.5.5-.5.5-.5.5-.5.5-.5.5-.5.5-.5.5-.5.5-.5.5-.5.5-.5.5-.5.5-.5.5-.5.5-.5.5-.5.5-.5.5-.5.5-.5.5-.5.5-.5.5-.5.5-.5.5-.5.5-.5.5-.5.5-.5.5-.5.5-.5.5-.5.5-.5h1l.5-.5.5-.5.5-.5.5-.5.5-.5.5-.5.5-.5.5-.5h1l.5-.5.5-.5h2l.5-.5.5-.5h5l.5.5v2l-.5.5-.5.5v1l-.5.5-.5.5-.5.5-.5.5-.5.5-.5.5-.5.5-.5.5v1l-.5.5-.5.5-.5.5-.5.5-.5.5-.5.5-.5.5-.5.5-.5.5-.5.5v1l-.5.5-.5.5-.5.5-.5.5-.5.5-.5.5-.5.5-.5.5-.5.5-.5.5-.5.5-.5.5-.5.5-.5.5-.5.5-.5.5-.5.5-.5.5-.5.5-.5.5v1l-.5.5-.5.5-.5.5-.5.5-.5.5-.5.5-.5.5-.5.5-.5.5-.5.5-.5.5-.5.5v1l-.5.5-.5.5-.5.5-.5.5-.5.5-.5.5-.5.5-.5.5-.5.5-.5.5-.5.5-.5.5v1l-.5.5-.5.5-.5.5-.5.5-.5.5-.5.5-.5.5-.5.5v1l-.5.5-.5.5-.5.5-.5.5-.5.5-.5.5-.5.5-.5.5-.5.5-.5.5v1l-.5.5-.5.5-.5.5-.5.5-.5.5-.5.5-.5.5-.5.5v1l-.5.5-.5.5-.5.5-.5.5-.5.5-.5.5-.5.5-.5.5v1l-.5.5-.5.5-.5.5-.5.5-.5.5-.5.5-.5.5-.5.5v1l.5.5.5-.5.5-.5h1l.5-.5.5-.5h1l.5-.5.5-.5h1l.5-.5.5-.5h1l.5-.5.5-.5h1l.5-.5.5-.5h1l.5-.5.5-.5h1l.5-.5.5-.5h1l.5-.5.5-.5.5-.5.5-.5h2l.5-.5.5-.5h1l.5-.5.5-.5h1l.5-.5.5-.5h1l.5-.5.5-.5h1l.5-.5.5-.5h1l.5-.5.5-.5h1l.5-.5.5-.5h2l.5-.5.5-.5h2l.5-.5.5-.5h1l.5-.5.5-.5h2l.5-.5.5-.5h3l.5-.5.5-.5h5l.5.5.5.5.5.5-.5.5-.5.5v2l-.5.5-.5.5v1l-.5.5-.5.5-.5.5h-1l-.5.5-.5.5-.5.5-.5.5-.5.5-.5.5h-1l-.5.5-.5.5-.5.5-.5.5h-1l-.5.5-.5.5h-1l-.5.5-.5.5-.5.5-.5.5h-1l-.5.5-.5.5h-1l-.5.5-.5.5-.5.5-.5.5h-1l-.5.5-.5.5h-1l-.5.5-.5.5h-1l-.5.5-.5.5h-1l-.5.5-.5.5h-1l-.5.5-.5.5h-1l-.5.5-.5.5h-1l-.5.5-.5.5h-1l-.5.5-.5.5h-1l-.5.5-.5.5h-1l-.5.5-.5.5h-1l-.5.5-.5.5h-1l-.5.5-.5.5h-1l-.5.5-.5.5h-1l-.5.5-.5.5h-1l-.5.5-.5.5h-1l-.5.5-.5.5h-1l-.5.5-.5.5h-2l-.5.5-.5.5h-1l-.5.5-.5.5h-1l-.5.5-.5.5h-1l-.5.5-.5.5h-1l-.5.5-.5.5h-1l-.5.5-.5.5h-1l-.5.5-.5.5h-1l-.5.5-.5.5-.5.5-.5.5-.5.5-.5.5-.5.5-.5.5-.5.5v1l-.5.5-.5.5-.5.5-.5.5v1l-.5.5-.5.5-.5.5-.5.5-.5.5-.5.5v1l-.5.5-.5.5-.5.5-.5.5v1l-.5.5-.5.5-.5.5-.5.5v1l-.5.5-.5.5-.5.5-.5.5v1l-.5.5-.5.5-.5.5-.5.5v1l-.5.5-.5.5-.5.5-.5.5.5.5h1l.5-.5.5-.5.5-.5.5-.5h1l.5-.5.5-.5h1l.5-.5.5-.5.5-.5.5-.5h1l.5-.5.5-.5.5-.5.5-.5h1l.5-.5.5-.5h1l.5-.5.5-.5h1l.5-.5.5-.5h1l.5-.5.5-.5h1l.5-.5.5-.5h1l.5-.5.5-.5h1l.5-.5.5-.5h1l.5-.5.5-.5h1l.5-.5.5-.5h2l.5-.5.5-.5h2l.5-.5.5-.5h2l.5-.5.5-.5h2l.5-.5.5-.5h5l.5-.5.5-.5h2l.5.5.5.5h6l.5.5.5.5h3l.5.5.5.5h1l.5.5.5.5h1l.5.5.5.5h1l.5.5.5.5h1l.5.5.5.5.5.5.5.5.5.5.5.5h1l.5.5.5.5.5.5.5.5.5.5.5.5.5.5.5.5.5.5.5.5.5.5.5.5.5.5.5.5.5.5.5.5.5.5.5.5.5.5v1l.5.5.5.5.5.5.5.5.5.5.5.5.5.5.5.5v1l.5.5.5.5.5.5.5.5v1l.5.5.5.5v1l.5.5.5.5v1l-.5.5-.5.5-.5.5h-1l-.5.5-.5.5h-1l-.5.5-.5.5h-2l-.5.5-.5.5h-3l-.5.5-.5.5h-2l-.5.5-.5.5h-3l-.5.5-.5.5h-18l-.5-.5-.5-.5h-2l-.5-.5-.5-.5h-1l-.5-.5-.5-.5h-1l-.5-.5-.5-.5h-1l-.5-.5-.5-.5h-1l-.5-.5-.5-.5-.5-.5-.5-.5-.5-.5-.5-.5h-1l-.5-.5-.5-.5-.5-.5-.5-.5-.5-.5-.5-.5-.5-.5-.5-.5-.5-.5-.5-.5-.5-.5-.5-.5-.5-.5-.5-.5-.5-.5v-1l-.5-.5-.5-.5-.5-.5-.5-.5-.5-.5-.5-.5-.5-.5h-2l-.5.5-.5.5h-1l-.5.5-.5.5-.5.5-.5.5h-1l-.5.5-.5.5h-1l-.5.5-.5.5-.5.5-.5.5h-1l-.5.5-.5.5-.5.5-.5.5-.5.5-.5.5h-1l-.5.5-.5.5-.5.5-.5.5-.5.5-.5.5h-1l-.5.5-.5.5-.5.5-.5.5h-1l-.5.5-.5.5-.5.5-.5.5-.5.5-.5.5h-1l-.5.5-.5.5-.5.5-.5.5-.5.5-.5.5h-1l-.5.5-.5.5-.5.5-.5.5-.5.5-.5.5h-1l-.5.5-.5.5-.5.5-.5.5-.5.5-.5.5-.5.5-.5.5h-1l-.5.5-.5.5-.5.5-.5.5-.5.5-.5.5h-1l-.5.5-.5.5-.5.5v1l-.5.5-.5.5v1l-.5.5-.5.5v1l-.5.5-.5.5v1l-.5.5-.5.5-.5.5-.5.5v1l-.5.5-.5.5v1l-.5.5-.5.5v1l-.5.5-.5.5v1l-.5.5-.5.5-.5.5-.5.5v1l-.5.5-.5.5v1l-.5.5-.5.5v1l-.5.5-.5.5v1l-.5.5-.5.5-.5.5-.5.5v1l-.5.5-.5.5v1l-.5.5-.5.5v1l-.5.5-.5.5v1l-.5.5-.5.5-.5.5-.5.5v1l-.5.5-.5.5v1l-.5.5-.5.5v1l-.5.5-.5.5v1l-.5.5-.5.5v1l-.5.5-.5.5v1l-.5.5-.5.5v1l-.5.5-.5.5v1l-.5.5-.5.5-.5.5-.5.5v1l-.5.5-.5.5v2l-.5.5-.5.5v1l-.5.5-.5.5v1l-.5.5-.5.5v1l-.5.5-.5.5v1l-.5.5-.5.5v1l-.5.5-.5.5v1l-.5.5-.5.5v1l-.5.5-.5.5v1l-.5.5-.5.5v1l-.5.5-.5.5v1l-.5.5-.5.5v1l-.5.5-.5.5v1l-.5.5-.5.5v1l-.5.5-.5.5v1l-.5.5-.5.5v1l-.5.5-.5.5v1l-.5.5-.5.5v1l-.5.5-.5.5v2l-.5.5-.5.5v1l-.5.5-.5.5v1l-.5.5-.5.5v1l-.5.5-.5.5v1l-.5.5-.5.5v2l-.5.5-.5.5v2l-.5.5-.5.5v1l-.5.5-.5.5v1l-.5.5-.5.5v1l-.5.5-.5.5v2l-.5.5-.5.5v1l-.5.5-.5.5v2l-.5.5-.5.5v1l-.5.5-.5.5v2l-.5.5-.5.5v1l-.5.5-.5.5v2l-.5.5-.5.5v1l-.5.5-.5.5v2l-.5.5-.5.5v1l-.5.5-.5.5v2l-.5.5-.5.5v2l-.5.5-.5.5v1l-.5.5-.5.5v2l-.5.5-.5.5v2l-.5.5-.5.5v2l-.5.5-.5.5v2l-.5.5-.5.5v2l-.5.5-.5.5v2l-.5.5-.5.5v2l-.5.5-.5.5v2l-.5.5-.5.5v3l-.5.5-.5.5v2l-.5.5-.5.5v3l-.5.5-.5.5v4l-.5.5-.5.5v3l-.5.5-.5.5v3l-.5.5-.5.5v4l-.5.5-.5.5v4l-.5.5-.5.5v6l-.5.5-.5.5v7l-.5.5-.5.5v25l.5.5.5.5v8l.5.5.5.5v4l.5.5.5.5v3l.5.5.5.5v2l.5.5.5.5v2l.5.5.5.5v2l.5.5.5.5v2l.5.5.5.5v1l.5.5.5.5v2l.5.5.5.5v1l.5.5.5.5v1l.5.5.5.5v1l.5.5.5.5v1l.5.5.5.5v1l.5.5.5.5v1l.5.5.5.5.5.5.5.5v1l.5.5.5.5.5.5.5.5v1l.5.5.5.5.5.5.5.5v1l.5.5.5.5.5.5.5.5.5.5.5.5v1l.5.5.5.5.5.5.5.5.5.5.5.5v1l.5.5.5.5.5.5.5.5.5.5.5.5.5.5.5.5.5.5.5.5.5.5.5.5.5.5.5.5.5.5.5.5.5.5.5.5.5.5.5.5.5.5.5.5.5.5.5.5.5.5.5.5.5.5.5.5.5.5.5.5.5.5.5.5.5.5h1l.5.5.5.5.5.5.5.5.5.5.5.5.5.5.5.5h1l.5.5.5.5.5.5.5.5.5.5.5.5h1l.5.5.5.5.5.5.5.5h1l.5.5.5.5.5.5.5.5h1l.5.5.5.5.5.5.5.5h1l.5.5.5.5h1l.5.5.5.5.5.5.5.5h1l.5.5.5.5h1l.5.5.5.5h1l.5.5.5.5h1l.5.5.5.5.5.5.5.5h2l.5.5.5.5h1l.5.5.5.5h1l.5.5.5.5h1l.5.5.5.5h1l.5.5.5.5h1l.5.5.5.5h2l.5.5.5.5h2l.5.5.5.5h2l.5.5.5.5h1l.5.5.5.5h2l.5.5.5.5h2l.5.5.5.5h3l.5.5.5.5h3l.5.5.5.5h3l.5.5.5.5h3l.5.5.5.5h3l.5.5.5.5h1l.5.5-.5.5h-2l-.5.5zM238 318.5h-14l-.5-.5-.5-.5h-2l-.5-.5-.5-.5h-2l-.5-.5-.5-.5h-2l-.5-.5-.5-.5h-1l-.5-.5-.5-.5h-1l-.5-.5-.5-.5h-1l-.5-.5-.5-.5-.5-.5-.5-.5h-1l-.5-.5-.5-.5-.5-.5-.5-.5h-1l-.5-.5-.5-.5-.5-.5-.5-.5-.5-.5-.5-.5-.5-.5-.5-.5-.5-.5-.5-.5-.5-.5v-1l.5-.5.5-.5.5-.5.5-.5.5-.5.5-.5.5-.5.5-.5.5-.5.5-.5.5-.5h1l.5-.5.5-.5.5-.5.5-.5.5-.5.5-.5h1l.5-.5.5-.5.5-.5.5-.5h1l.5-.5.5-.5.5-.5.5-.5h1l.5-.5.5-.5h1l.5-.5.5-.5h2l.5-.5.5-.5h2l.5-.5.5-.5h3l.5-.5.5-.5h13l.5.5.5.5h2l.5.5.5.5h2l.5.5.5.5h1l.5.5.5.5h1l.5.5.5.5.5.5.5.5.5.5.5.5h1l.5.5.5.5.5.5.5.5.5.5.5.5.5.5.5.5.5.5.5.5.5.5.5.5.5.5.5.5.5.5.5.5.5.5.5.5.5.5v2l-.5.5-.5.5-.5.5-.5.5-.5.5-.5.5-.5.5-.5.5-.5.5-.5.5-.5.5-.5.5-.5.5h-1l-.5.5-.5.5-.5.5-.5.5-.5.5-.5.5h-1l-.5.5-.5.5h-1l-.5.5-.5.5h-1l-.5.5-.5.5h-1l-.5.5-.5.5h-2l-.5.5-.5.5h-3l-.5.5zM799 318.5h-14l-.5-.5-.5-.5h-2l-.5-.5-.5-.5h-2l-.5-.5-.5-.5h-1l-.5-.5-.5-.5h-1l-.5-.5-.5-.5h-1l-.5-.5-.5-.5h-1l-.5-.5-.5-.5h-1l-.5-.5-.5-.5-.5-.5-.5-.5-.5-.5-.5-.5h-1l-.5-.5-.5-.5-.5-.5-.5-.5-.5-.5-.5-.5-.5-.5-.5-.5-.5-.5-.5-.5-.5-.5v-2l.5-.5.5-.5.5-.5.5-.5.5-.5.5-.5.5-.5.5-.5.5-.5.5-.5.5-.5.5-.5.5-.5.5-.5.5-.5.5-.5.5-.5.5-.5.5-.5h1l.5-.5.5-.5.5-.5.5-.5h1l.5-.5.5-.5h1l.5-.5.5-.5h1l.5-.5.5-.5h1l.5-.5.5-.5h2l.5-.5.5-.5h14l.5.5.5.5h3l.5.5.5.5h2l.5.5.5.5h1l.5.5.5.5h1l.5.5.5.5h1l.5.5.5.5h1l.5.5.5.5.5.5.5.5h1l.5.5.5.5.5.5.5.5h1l.5.5.5.5.5.5.5.5.5.5.5.5.5.5.5.5.5.5.5.5.5.5.5.5.5.5.5.5.5.5v1l-.5.5-.5.5-.5.5-.5.5-.5.5-.5.5-.5.5-.5.5-.5.5-.5.5-.5.5-.5.5-.5.5h-1l-.5.5-.5.5-.5.5-.5.5h-1l-.5.5-.5.5h-1l-.5.5-.5.5h-1l-.5.5-.5.5h-1l-.5.5-.5.5h-1l-.5.5-.5.5h-2l-.5.5-.5.5h-3l-.5.5zM428 363.5h-3l-.5-.5v-1l-.5-.5-.5-.5v-1l-.5-.5-.5-.5v-2l-.5-.5-.5-.5v-3l-.5-.5-.5-.5v-11l.5-.5.5-.5v-4l.5-.5.5-.5v-2l.5-.5.5-.5v-2l.5-.5.5-.5.5-.5.5-.5v-1l.5-.5.5-.5.5-.5.5-.5v-1l.5-.5.5-.5.5-.5.5-.5.5-.5.5-.5.5-.5.5-.5.5-.5.5-.5.5-.5h1l.5-.5.5-.5.5-.5.5-.5.5-.5.5-.5h1l.5-.5.5-.5h1l.5-.5.5-.5h1l.5-.5.5-.5h2l.5-.5.5-.5.5.5.5.5.5.5v1l.5.5.5.5v1l.5.5.5.5v2l.5.5.5.5v5l.5.5.5.5v8l-.5.5-.5.5v4l-.5.5-.5.5v2l-.5.5-.5.5v1l-.5.5-.5.5v1l-.5.5-.5.5v1l-.5.5-.5.5-.5.5-.5.5-.5.5-.5.5v1l-.5.5-.5.5-.5.5-.5.5-.5.5-.5.5-.5.5-.5.5-.5.5-.5.5-.5.5h-1l-.5.5-.5.5-.5.5-.5.5h-1l-.5.5-.5.5-.5.5-.5.5h-1l-.5.5-.5.5h-1l-.5.5zM598 364.5l-.5-.5-.5-.5h-1l-.5-.5-.5-.5h-2l-.5-.5-.5-.5-.5-.5-.5-.5h-1l-.5-.5-.5-.5-.5-.5-.5-.5h-1l-.5-.5-.5-.5-.5-.5-.5-.5-.5-.5-.5-.5-.5-.5-.5-.5-.5-.5-.5-.5-.5-.5-.5-.5-.5-.5-.5-.5-.5-.5-.5-.5-.5-.5v-1l-.5-.5-.5-.5-.5-.5-.5-.5v-1l-.5-.5-.5-.5v-1l-.5-.5-.5-.5v-2l-.5-.5-.5-.5v-2l-.5-.5-.5-.5v-15l.5-.5.5-.5v-2l.5-.5.5-.5v-2l.5-.5.5-.5v-2l.5-.5.5-.5.5-.5.5.5.5.5h2l.5.5.5.5h2l.5.5.5.5.5.5.5.5h1l.5.5.5.5.5.5.5.5h1l.5.5.5.5.5.5.5.5.5.5.5.5.5.5.5.5.5.5.5.5.5.5.5.5.5.5.5.5.5.5.5.5.5.5v1l.5.5.5.5.5.5.5.5v2l.5.5.5.5v1l.5.5.5.5v2l.5.5.5.5v17l-.5.5-.5.5v3l-.5.5-.5.5v1l-.5.5-.5.5v1l-.5.5-.5.5v1zM466 359.5h-6l-.5-.5v-15l.5-.5.5-.5v-2l.5-.5.5-.5v-2l.5-.5.5-.5v-1l.5-.5.5-.5v-1l.5-.5.5-.5v-1l.5-.5.5-.5.5-.5.5-.5.5-.5.5-.5.5-.5.5-.5.5-.5.5-.5.5-.5.5-.5.5-.5.5-.5.5-.5.5-.5.5-.5.5-.5.5-.5h1l.5-.5.5-.5h1l.5-.5.5-.5h2l.5-.5.5-.5h2l.5-.5.5-.5h4l.5-.5.5-.5h5l.5.5v3l.5.5.5.5v6l-.5.5-.5.5v5l-.5.5-.5.5v3l-.5.5-.5.5v1l-.5.5-.5.5v1l-.5.5-.5.5v1l-.5.5-.5.5-.5.5-.5.5v1l-.5.5-.5.5-.5.5-.5.5-.5.5-.5.5-.5.5-.5.5-.5.5h-1l-.5.5-.5.5-.5.5-.5.5h-1l-.5.5-.5.5h-1l-.5.5-.5.5h-1l-.5.5-.5.5h-2l-.5.5-.5.5h-1l-.5.5-.5.5h-3l-.5.5zM563 359.5h-5l-.5-.5-.5-.5h-3l-.5-.5-.5-.5h-2l-.5-.5-.5-.5h-2l-.5-.5-.5-.5h-1l-.5-.5-.5-.5h-1l-.5-.5-.5-.5-.5-.5-.5-.5h-1l-.5-.5-.5-.5-.5-.5-.5-.5-.5-.5-.5-.5-.5-.5-.5-.5-.5-.5-.5-.5-.5-.5-.5-.5-.5-.5-.5-.5-.5-.5v-1l-.5-.5-.5-.5-.5-.5-.5-.5v-1l-.5-.5-.5-.5v-2l-.5-.5-.5-.5v-2l-.5-.5-.5-.5v-16l.5-.5h6l.5.5.5.5h4l.5.5.5.5h2l.5.5.5.5h1l.5.5.5.5h1l.5.5.5.5h1l.5.5.5.5.5.5.5.5h1l.5.5.5.5.5.5.5.5.5.5.5.5.5.5.5.5.5.5.5.5.5.5v1l.5.5.5.5.5.5.5.5v1l.5.5.5.5v1l.5.5.5.5v2l.5.5.5.5v2l.5.5.5.5v4l.5.5.5.5v10l-.5.5-.5.5z" /><path fill="#2b2520" d="M248 377.5h-11l-.5-.5-.5-.5h-4l-.5-.5-.5-.5h-2l-.5-.5-.5-.5h-2l-.5-.5-.5-.5h-1l-.5-.5-.5-.5h-1l-.5-.5-.5-.5h-1l-.5-.5-.5-.5h-1l-.5-.5-.5-.5-.5-.5-.5-.5h-1l-.5-.5-.5-.5-.5-.5-.5-.5-.5-.5-.5-.5-.5-.5-.5-.5-.5-.5-.5-.5-.5-.5-.5-.5-.5-.5v-1l.5-.5.5-.5.5-.5.5-.5.5-.5.5-.5.5-.5.5-.5.5-.5.5-.5.5-.5.5-.5.5-.5.5-.5.5-.5.5-.5.5-.5h1l.5-.5.5-.5.5-.5.5-.5h1l.5-.5.5-.5h1l.5-.5.5-.5.5-.5.5-.5h1l.5-.5.5-.5h1l.5-.5.5-.5h2l.5-.5.5-.5h2l.5-.5.5-.5h4l.5-.5.5-.5h8l.5.5.5.5h4l.5.5.5.5h2l.5.5.5.5h1l.5.5.5.5h1l.5.5.5.5h1l.5.5.5.5.5.5.5.5.5.5.5.5h1l.5.5.5.5.5.5.5.5.5.5.5.5.5.5.5.5.5.5.5.5.5.5.5.5.5.5.5.5.5.5.5.5.5.5.5.5.5.5v1l-.5.5-.5.5-.5.5-.5.5-.5.5-.5.5-.5.5-.5.5-.5.5-.5.5-.5.5-.5.5-.5.5-.5.5-.5.5-.5.5-.5.5h-1l-.5.5-.5.5-.5.5-.5.5h-1l-.5.5-.5.5h-1l-.5.5-.5.5h-1l-.5.5-.5.5h-1l-.5.5-.5.5h-2l-.5.5-.5.5h-4l-.5.5zM787 377.5h-12l-.5-.5-.5-.5h-3l-.5-.5-.5-.5h-2l-.5-.5-.5-.5h-2l-.5-.5-.5-.5h-1l-.5-.5-.5-.5h-1l-.5-.5-.5-.5-.5-.5-.5-.5h-1l-.5-.5-.5-.5-.5-.5-.5-.5-.5-.5-.5-.5h-1l-.5-.5-.5-.5-.5-.5-.5-.5-.5-.5-.5-.5-.5-.5-.5-.5-.5-.5-.5-.5-.5-.5-.5-.5-.5-.5.5-.5.5-.5v-1l.5-.5.5-.5.5-.5.5-.5.5-.5.5-.5.5-.5.5-.5.5-.5.5-.5.5-.5.5-.5.5-.5h1l.5-.5.5-.5.5-.5.5-.5.5-.5.5-.5.5-.5.5-.5h1l.5-.5.5-.5h1l.5-.5.5-.5h1l.5-.5.5-.5h1l.5-.5.5-.5h2l.5-.5.5-.5h3l.5-.5.5-.5h8l.5.5.5.5h4l.5.5.5.5h2l.5.5.5.5h2l.5.5.5.5h1l.5.5.5.5h1l.5.5.5.5h1l.5.5.5.5.5.5.5.5h1l.5.5.5.5.5.5.5.5h1l.5.5.5.5.5.5.5.5.5.5.5.5.5.5.5.5.5.5.5.5h1l.5.5.5.5.5.5v1l.5.5.5.5.5.5.5.5-.5.5-.5.5-.5.5-.5.5-.5.5-.5.5-.5.5-.5.5-.5.5h-1l-.5.5-.5.5-.5.5-.5.5h-1l-.5.5-.5.5-.5.5-.5.5h-1l-.5.5-.5.5-.5.5-.5.5h-2l-.5.5-.5.5h-1l-.5.5-.5.5h-2l-.5.5-.5.5h-1l-.5.5-.5.5h-4l-.5.5zM473 402.5h-13l-.5-.5-.5-.5h-3l-.5-.5-.5-.5h-1l-.5-.5-.5-.5-.5-.5v-1l.5-.5.5-.5v-2l.5-.5.5-.5v-1l.5-.5.5-.5v-1l.5-.5.5-.5v-1l.5-.5.5-.5.5-.5.5-.5v-1l.5-.5.5-.5.5-.5.5-.5.5-.5.5-.5.5-.5.5-.5.5-.5.5-.5.5-.5.5-.5.5-.5.5-.5.5-.5h1l.5-.5.5-.5.5-.5.5-.5h1l.5-.5.5-.5h2l.5-.5.5-.5h2l.5-.5.5-.5h3l.5-.5.5-.5h9l.5.5.5.5h4l.5.5.5.5h2l.5.5.5.5h1l.5.5v1l-.5.5-.5.5v2l-.5.5-.5.5v1l-.5.5-.5.5v1l-.5.5-.5.5v1l-.5.5-.5.5-.5.5-.5.5-.5.5-.5.5v1l-.5.5-.5.5-.5.5-.5.5-.5.5-.5.5-.5.5-.5.5-.5.5-.5.5-.5.5-.5.5-.5.5h-1l-.5.5-.5.5-.5.5-.5.5h-1l-.5.5-.5.5h-1l-.5.5-.5.5h-2l-.5.5-.5.5h-3l-.5.5zM564 402.5h-15l-.5-.5-.5-.5h-2l-.5-.5-.5-.5h-2l-.5-.5-.5-.5h-1l-.5-.5-.5-.5-.5-.5-.5-.5h-1l-.5-.5-.5-.5-.5-.5-.5-.5h-1l-.5-.5-.5-.5-.5-.5-.5-.5-.5-.5-.5-.5-.5-.5-.5-.5-.5-.5v-1l-.5-.5-.5-.5-.5-.5-.5-.5-.5-.5-.5-.5v-1l-.5-.5-.5-.5-.5-.5-.5-.5v-1l-.5-.5-.5-.5v-2l-.5-.5-.5-.5v-3l.5-.5h1l.5-.5.5-.5h2l.5-.5.5-.5h6l.5-.5.5-.5h5l.5.5.5.5h4l.5.5.5.5h3l.5.5.5.5h1l.5.5.5.5h1l.5.5.5.5h1l.5.5.5.5.5.5.5.5.5.5.5.5.5.5.5.5.5.5.5.5.5.5.5.5.5.5.5.5.5.5.5.5.5.5v1l.5.5.5.5.5.5.5.5v1l.5.5.5.5.5.5.5.5v2l.5.5.5.5v1l.5.5.5.5v2l-.5.5-.5.5-.5.5h-1l-.5.5-.5.5h-2l-.5.5zM311 775.5h-15l-.5-.5.5-.5.5-.5.5-.5h2l.5-.5.5-.5h3l.5-.5.5-.5h3l.5-.5.5-.5h2l.5-.5.5-.5h3l.5-.5.5-.5h2l.5-.5.5-.5h2l.5-.5.5-.5h2l.5-.5.5-.5h2l.5-.5.5-.5h1l.5-.5.5-.5h2l.5-.5.5-.5h1l.5-.5.5-.5h2l.5-.5.5-.5h1l.5-.5.5-.5h2l.5-.5.5-.5h1l.5-.5.5-.5h1l.5-.5.5-.5h1l.5-.5.5-.5h2l.5-.5.5-.5h1l.5-.5.5-.5h1l.5-.5.5-.5h1l.5-.5.5-.5h1l.5-.5.5-.5h1l.5-.5.5-.5h1l.5-.5.5-.5.5-.5.5-.5h1l.5-.5.5-.5h1l.5-.5.5-.5h1l.5-.5.5-.5h1l.5-.5.5-.5.5-.5.5-.5h1l.5-.5.5-.5.5-.5.5-.5h1l.5-.5.5-.5.5-.5.5-.5h1l.5-.5.5-.5.5-.5.5-.5.5-.5.5-.5h1l.5-.5.5-.5.5-.5.5-.5.5-.5.5-.5h1l.5-.5.5-.5.5-.5.5-.5.5-.5.5-.5.5-.5.5-.5.5-.5.5-.5.5-.5.5-.5.5-.5.5-.5.5-.5.5-.5.5-.5.5-.5.5-.5.5-.5.5-.5.5-.5.5-.5.5-.5.5-.5.5-.5.5-.5.5-.5.5-.5.5-.5.5-.5v-1l.5-.5.5-.5.5-.5.5-.5.5-.5.5-.5v-1l.5-.5.5-.5v-1l.5-.5.5-.5.5-.5.5-.5v-1l.5-.5.5-.5v-1l.5-.5.5-.5v-1l.5-.5.5-.5v-1l.5-.5.5-.5v-2l.5-.5.5-.5v-1l.5-.5.5-.5v-2l.5-.5.5-.5v-3l.5-.5.5-.5v-2l.5-.5.5-.5v-3l.5-.5.5-.5v-6l.5-.5.5-.5v-8l.5-.5.5-.5v-16l-.5-.5-.5-.5v-12l-.5-.5-.5-.5v-7l-.5-.5-.5-.5v-5l-.5-.5-.5-.5v-5l-.5-.5-.5-.5v-5l-.5-.5-.5-.5v-4l-.5-.5-.5-.5v-5l-.5-.5-.5-.5v-3l-.5-.5-.5-.5v-3l-.5-.5-.5-.5v-4l-.5-.5-.5-.5v-3l-.5-.5-.5-.5v-2l-.5-.5-.5-.5v-3l-.5-.5-.5-.5v-3l-.5-.5-.5-.5v-3l-.5-.5-.5-.5v-2l-.5-.5-.5-.5v-2l-.5-.5-.5-.5v-2l-.5-.5-.5-.5v-2l-.5-.5-.5-.5v-2l-.5-.5-.5-.5v-2l-.5-.5-.5-.5v-3l-.5-.5-.5-.5v-2l-.5-.5-.5-.5v-2l-.5-.5-.5-.5v-1l-.5-.5-.5-.5v-2l-.5-.5-.5-.5v-2l-.5-.5-.5-.5v-2l-.5-.5-.5-.5v-2l-.5-.5-.5-.5v-2l-.5-.5-.5-.5v-2l-.5-.5-.5-.5v-1l-.5-.5-.5-.5v-2l-.5-.5-.5-.5v-1l-.5-.5-.5-.5v-2l-.5-.5-.5-.5v-1l-.5-.5-.5-.5v-2l-.5-.5-.5-.5v-2l-.5-.5-.5-.5v-1l-.5-.5-.5-.5v-2l-.5-.5-.5-.5v-1l-.5-.5-.5-.5v-2l-.5-.5-.5-.5v-1l-.5-.5-.5-.5v-1l-.5-.5-.5-.5v-1l-.5-.5-.5-.5v-2l-.5-.5-.5-.5v-1l-.5-.5-.5-.5v-1l-.5-.5-.5-.5v-1l-.5-.5-.5-.5v-1l-.5-.5-.5-.5v-2l-.5-.5-.5-.5v-1l-.5-.5-.5-.5v-1l-.5-.5-.5-.5v-1l-.5-.5-.5-.5v-1l-.5-.5-.5-.5v-1l-.5-.5-.5-.5v-2l-.5-.5-.5-.5-.5-.5-.5-.5v-1l-.5-.5-.5-.5v-1l-.5-.5-.5-.5v-2l-.5-.5-.5-.5v-1l-.5-.5-.5-.5v-1l-.5-.5-.5-.5v-1l-.5-.5-.5-.5v-1l-.5-.5-.5-.5v-1l-.5-.5-.5-.5v-1l-.5-.5-.5-.5v-1l-.5-.5-.5-.5v-2l-.5-.5-.5-.5v-1l-.5-.5-.5-.5v-1l-.5-.5-.5-.5v-1l-.5-.5-.5-.5v-2l-.5-.5-.5-.5.5-.5.5-.5.5-.5h1l.5.5.5.5h1l.5.5.5.5h1l.5.5.5.5.5.5.5.5.5.5v1l.5.5.5.5.5.5.5.5.5.5.5.5v1l.5.5.5.5.5.5.5.5v1l.5.5.5.5.5.5.5.5v1l.5.5.5.5v1l.5.5.5.5.5.5.5.5v1l.5.5.5.5v1l.5.5.5.5v1l.5.5.5.5.5.5.5.5v1l.5.5.5.5v1l.5.5.5.5v1l.5.5.5.5v1l.5.5.5.5v1l.5.5.5.5v1l.5.5.5.5v1l.5.5.5.5v1l.5.5.5.5v1l.5.5.5.5v1l.5.5.5.5v1l.5.5.5.5v1l.5.5.5.5v1l.5.5.5.5v1l.5.5.5.5v1l.5.5.5.5v1l.5.5.5.5v2l.5.5.5.5v1l.5.5.5.5v1l.5.5.5.5v1l.5.5.5.5v1l.5.5.5.5v2l.5.5.5.5v1l.5.5.5.5v2l.5.5.5.5v1l.5.5.5.5v1l.5.5.5.5v1l.5.5.5.5v2l.5.5.5.5v1l.5.5.5.5v2l.5.5.5.5v1l.5.5.5.5v2l.5.5.5.5v1l.5.5.5.5v2l.5.5.5.5v1l.5.5.5.5v2l.5.5.5.5v2l.5.5.5.5v1l.5.5.5.5v2l.5.5.5.5v2l.5.5.5.5v2l.5.5.5.5v1l.5.5.5.5v2l.5.5.5.5v2l.5.5.5.5v2l.5.5.5.5v2l.5.5.5.5v2l.5.5.5.5v2l.5.5.5.5v2l.5.5.5.5v2l.5.5.5.5v2l.5.5.5.5v3l.5.5.5.5v2l.5.5.5.5v3l.5.5.5.5v3l.5.5.5.5v2l.5.5.5.5v3l.5.5.5.5v2l.5.5.5.5v4l.5.5.5.5v4l.5.5.5.5v4l.5.5.5.5v4l.5.5.5.5v5l.5.5.5.5v5l.5.5.5.5v6l.5.5.5.5v8l.5.5.5.5v24l-.5.5-.5.5v9l-.5.5-.5.5v5l-.5.5-.5.5v3l-.5.5-.5.5v3l-.5.5-.5.5v3l-.5.5-.5.5v2l-.5.5-.5.5v1l-.5.5-.5.5v2l-.5.5-.5.5v1l-.5.5-.5.5v1l-.5.5-.5.5v1l-.5.5-.5.5v1l-.5.5-.5.5v1l-.5.5-.5.5-.5.5-.5.5v1l-.5.5-.5.5v1l-.5.5-.5.5-.5.5-.5.5v1l-.5.5-.5.5-.5.5-.5.5-.5.5-.5.5-.5.5-.5.5v1l-.5.5-.5.5-.5.5-.5.5-.5.5-.5.5-.5.5-.5.5-.5.5-.5.5-.5.5-.5.5-.5.5-.5.5-.5.5-.5.5-.5.5-.5.5-.5.5-.5.5-.5.5-.5.5-.5.5-.5.5-.5.5-.5.5-.5.5-.5.5-.5.5h-1l-.5.5-.5.5-.5.5-.5.5-.5.5-.5.5h-1l-.5.5-.5.5-.5.5-.5.5-.5.5-.5.5h-1l-.5.5-.5.5-.5.5-.5.5h-1l-.5.5-.5.5-.5.5-.5.5h-1l-.5.5-.5.5h-1l-.5.5-.5.5-.5.5-.5.5h-1l-.5.5-.5.5h-1l-.5.5-.5.5h-1l-.5.5-.5.5h-1l-.5.5-.5.5h-2l-.5.5-.5.5h-1l-.5.5-.5.5h-1l-.5.5-.5.5h-2l-.5.5-.5.5h-1l-.5.5-.5.5h-2l-.5.5-.5.5h-2l-.5.5-.5.5h-2l-.5.5-.5.5h-2l-.5.5-.5.5h-2l-.5.5-.5.5h-3l-.5.5-.5.5h-3l-.5.5-.5.5h-4l-.5.5-.5.5h-3l-.5.5-.5.5h-4l-.5.5-.5.5h-5l-.5.5-.5.5h-6l-.5.5zM727 775.5h-15l-.5-.5-.5-.5h-7l-.5-.5-.5-.5h-4l-.5-.5-.5-.5h-4l-.5-.5-.5-.5h-3l-.5-.5-.5-.5h-3l-.5-.5-.5-.5h-4l-.5-.5-.5-.5h-3l-.5-.5-.5-.5h-3l-.5-.5-.5-.5h-2l-.5-.5-.5-.5h-2l-.5-.5-.5-.5h-2l-.5-.5-.5-.5h-2l-.5-.5-.5-.5h-1l-.5-.5-.5-.5h-2l-.5-.5-.5-.5h-1l-.5-.5-.5-.5h-1l-.5-.5-.5-.5h-2l-.5-.5-.5-.5h-1l-.5-.5-.5-.5h-1l-.5-.5-.5-.5h-1l-.5-.5-.5-.5-.5-.5-.5-.5h-1l-.5-.5-.5-.5h-1l-.5-.5-.5-.5-.5-.5-.5-.5-.5-.5-.5-.5h-1l-.5-.5-.5-.5-.5-.5-.5-.5h-1l-.5-.5-.5-.5-.5-.5-.5-.5h-1l-.5-.5-.5-.5-.5-.5-.5-.5-.5-.5-.5-.5h-1l-.5-.5-.5-.5-.5-.5-.5-.5-.5-.5-.5-.5-.5-.5-.5-.5-.5-.5-.5-.5-.5-.5-.5-.5-.5-.5-.5-.5-.5-.5-.5-.5-.5-.5-.5-.5-.5-.5-.5-.5-.5-.5-.5-.5-.5-.5-.5-.5-.5-.5-.5-.5-.5-.5-.5-.5-.5-.5-.5-.5-.5-.5v-1l-.5-.5-.5-.5-.5-.5-.5-.5-.5-.5-.5-.5v-1l-.5-.5-.5-.5-.5-.5-.5-.5v-1l-.5-.5-.5-.5v-1l-.5-.5-.5-.5-.5-.5-.5-.5v-1l-.5-.5-.5-.5v-1l-.5-.5-.5-.5v-1l-.5-.5-.5-.5v-1l-.5-.5-.5-.5v-1l-.5-.5-.5-.5v-1l-.5-.5-.5-.5v-1l-.5-.5-.5-.5v-2l-.5-.5-.5-.5v-2l-.5-.5-.5-.5v-3l-.5-.5-.5-.5v-3l-.5-.5-.5-.5v-5l-.5-.5-.5-.5v-6l-.5-.5-.5-.5v-35l.5-.5.5-.5v-7l.5-.5.5-.5v-6l.5-.5.5-.5v-6l.5-.5.5-.5v-4l.5-.5.5-.5v-5l.5-.5.5-.5v-3l.5-.5.5-.5v-3l.5-.5.5-.5v-3l.5-.5.5-.5v-3l.5-.5.5-.5v-3l.5-.5.5-.5v-3l.5-.5.5-.5v-2l.5-.5.5-.5v-2l.5-.5.5-.5v-3l.5-.5.5-.5v-2l.5-.5.5-.5v-3l.5-.5.5-.5v-2l.5-.5.5-.5v-2l.5-.5.5-.5v-1l.5-.5.5-.5v-3l.5-.5.5-.5v-2l.5-.5.5-.5v-2l.5-.5.5-.5v-1l.5-.5.5-.5v-2l.5-.5.5-.5v-2l.5-.5.5-.5v-2l.5-.5.5-.5v-1l.5-.5.5-.5v-2l.5-.5.5-.5v-2l.5-.5.5-.5v-1l.5-.5.5-.5v-2l.5-.5.5-.5v-2l.5-.5.5-.5v-1l.5-.5.5-.5v-2l.5-.5.5-.5v-1l.5-.5.5-.5v-2l.5-.5.5-.5v-1l.5-.5.5-.5v-1l.5-.5.5-.5v-2l.5-.5.5-.5v-1l.5-.5.5-.5v-1l.5-.5.5-.5v-1l.5-.5.5-.5v-2l.5-.5.5-.5v-1l.5-.5.5-.5v-2l.5-.5.5-.5v-1l.5-.5.5-.5v-1l.5-.5.5-.5v-1l.5-.5.5-.5v-1l.5-.5.5-.5v-1l.5-.5.5-.5v-2l.5-.5.5-.5v-1l.5-.5.5-.5v-1l.5-.5.5-.5v-1l.5-.5.5-.5v-1l.5-.5.5-.5v-1l.5-.5.5-.5v-1l.5-.5.5-.5.5-.5.5-.5v-2l.5-.5.5-.5v-1l.5-.5.5-.5v-1l.5-.5.5-.5.5-.5.5-.5v-2l.5-.5.5-.5.5-.5.5-.5v-1l.5-.5.5-.5v-1l.5-.5.5-.5v-1l.5-.5.5-.5v-1l.5-.5.5-.5.5-.5.5-.5v-1l.5-.5.5-.5v-1l.5-.5.5-.5.5-.5.5-.5v-1l.5-.5.5-.5.5-.5.5-.5v-1l.5-.5.5-.5.5-.5.5-.5v-1l.5-.5.5-.5.5-.5.5-.5.5-.5.5-.5v-1l.5-.5.5-.5.5-.5h1l.5-.5.5-.5h1l.5-.5.5-.5h1l.5.5.5.5.5.5-.5.5-.5.5v2l-.5.5-.5.5v1l-.5.5-.5.5v1l-.5.5-.5.5v1l-.5.5-.5.5v2l-.5.5-.5.5v1l-.5.5-.5.5v1l-.5.5-.5.5v1l-.5.5-.5.5v1l-.5.5-.5.5v1l-.5.5-.5.5v2l-.5.5-.5.5v1l-.5.5-.5.5v1l-.5.5-.5.5v1l-.5.5-.5.5v1l-.5.5-.5.5v1l-.5.5-.5.5v1l-.5.5-.5.5v2l-.5.5-.5.5v1l-.5.5-.5.5v1l-.5.5-.5.5v1l-.5.5-.5.5v1l-.5.5-.5.5v1l-.5.5-.5.5v2l-.5.5-.5.5v1l-.5.5-.5.5v1l-.5.5-.5.5v1l-.5.5-.5.5v1l-.5.5-.5.5v2l-.5.5-.5.5v1l-.5.5-.5.5v1l-.5.5-.5.5v1l-.5.5-.5.5v2l-.5.5-.5.5v1l-.5.5-.5.5v2l-.5.5-.5.5v1l-.5.5-.5.5v2l-.5.5-.5.5v1l-.5.5-.5.5v2l-.5.5-.5.5v2l-.5.5-.5.5v2l-.5.5-.5.5v2l-.5.5-.5.5v1l-.5.5-.5.5v2l-.5.5-.5.5v2l-.5.5-.5.5v1l-.5.5-.5.5v3l-.5.5-.5.5v1l-.5.5-.5.5v2l-.5.5-.5.5v2l-.5.5-.5.5v2l-.5.5-.5.5v2l-.5.5-.5.5v2l-.5.5-.5.5v2l-.5.5-.5.5v3l-.5.5-.5.5v1l-.5.5-.5.5v3l-.5.5-.5.5v3l-.5.5-.5.5v2l-.5.5-.5.5v3l-.5.5-.5.5v3l-.5.5-.5.5v3l-.5.5-.5.5v2l-.5.5-.5.5v4l-.5.5-.5.5v3l-.5.5-.5.5v3l-.5.5-.5.5v4l-.5.5-.5.5v5l-.5.5-.5.5v4l-.5.5-.5.5v5l-.5.5-.5.5v7l-.5.5-.5.5v6l-.5.5-.5.5v34l.5.5.5.5v7l.5.5.5.5v3l.5.5.5.5v4l.5.5.5.5v3l.5.5.5.5v2l.5.5.5.5v1l.5.5.5.5v1l.5.5.5.5v1l.5.5.5.5v2l.5.5.5.5v1l.5.5.5.5v1l.5.5.5.5.5.5.5.5v1l.5.5.5.5.5.5.5.5v1l.5.5.5.5.5.5.5.5.5.5.5.5v1l.5.5.5.5.5.5.5.5.5.5.5.5.5.5.5.5.5.5.5.5.5.5.5.5v1l.5.5h1l.5.5.5.5.5.5.5.5.5.5.5.5.5.5.5.5.5.5.5.5.5.5.5.5.5.5.5.5.5.5.5.5h1l.5.5.5.5.5.5.5.5.5.5.5.5h1l.5.5.5.5.5.5.5.5.5.5.5.5h1l.5.5.5.5.5.5.5.5h1l.5.5.5.5h1l.5.5.5.5.5.5.5.5h1l.5.5.5.5h1l.5.5.5.5.5.5.5.5h1l.5.5.5.5h1l.5.5.5.5h1l.5.5.5.5h1l.5.5.5.5h1l.5.5.5.5h1l.5.5.5.5h1l.5.5.5.5h1l.5.5.5.5h1l.5.5.5.5h1l.5.5.5.5h1l.5.5.5.5h2l.5.5.5.5h1l.5.5.5.5h2l.5.5.5.5h2l.5.5.5.5h1l.5.5.5.5h2l.5.5.5.5h1l.5.5.5.5h2l.5.5.5.5h2l.5.5.5.5h3l.5.5.5.5h2l.5.5.5.5h2l.5.5.5.5h3l.5.5.5.5h2l.5.5.5.5h3l.5.5.5.5h2l.5.5.5.5.5.5z" /><path fill="#2b2520" d="M350 789.5h-9l-.5-.5-.5-.5h-3l-.5-.5v-1l.5-.5h2l.5-.5.5-.5h3l.5-.5.5-.5h3l.5-.5.5-.5h3l.5-.5.5-.5h2l.5-.5.5-.5h2l.5-.5.5-.5h2l.5-.5.5-.5h2l.5-.5.5-.5h1l.5-.5.5-.5h2l.5-.5.5-.5h2l.5-.5.5-.5h1l.5-.5.5-.5h2l.5-.5.5-.5h1l.5-.5.5-.5h1l.5-.5.5-.5h2l.5-.5.5-.5h1l.5-.5.5-.5h1l.5-.5.5-.5.5-.5.5-.5h1l.5-.5.5-.5h1l.5-.5.5-.5h1l.5-.5.5-.5h1l.5-.5.5-.5.5-.5.5-.5h1l.5-.5.5-.5h1l.5-.5.5-.5h1l.5-.5.5-.5.5-.5.5-.5h1l.5-.5.5-.5.5-.5.5-.5.5-.5.5-.5h1l.5-.5.5-.5.5-.5.5-.5.5-.5.5-.5h1l.5-.5.5-.5.5-.5.5-.5.5-.5.5-.5.5-.5.5-.5h1l.5-.5.5-.5.5-.5.5-.5.5-.5.5-.5.5-.5.5-.5.5-.5.5-.5.5-.5.5-.5.5-.5.5-.5.5-.5.5-.5.5-.5.5-.5.5-.5.5-.5.5-.5.5-.5.5-.5v-1l.5-.5.5-.5.5-.5.5-.5.5-.5.5-.5v-1l.5-.5.5-.5.5-.5.5-.5.5-.5.5-.5v-1l.5-.5.5-.5.5-.5.5-.5v-1l.5-.5.5-.5v-1l.5-.5.5-.5v-1l.5-.5.5-.5.5-.5.5-.5v-1l.5-.5.5-.5v-2l.5-.5.5-.5v-1l.5-.5.5-.5v-2l.5-.5.5-.5v-1l.5-.5.5-.5v-2l.5-.5.5-.5v-3l.5-.5.5-.5v-2l.5-.5.5-.5v-3l.5-.5.5-.5v-5l.5-.5.5-.5v-8l.5-.5.5-.5v-26l-.5-.5-.5-.5v-11l.5-.5.5.5.5.5.5.5v2l.5.5.5.5v3l.5.5.5.5v3l.5.5.5.5v4l.5.5.5.5v3l.5.5.5.5v4l.5.5.5.5v5l.5.5.5.5v8l.5.5.5.5v25l-.5.5-.5.5v6l-.5.5-.5.5v3l-.5.5-.5.5v2l-.5.5-.5.5v2l-.5.5-.5.5v2l-.5.5-.5.5v1l-.5.5-.5.5v1l-.5.5-.5.5v1l-.5.5-.5.5v1l-.5.5-.5.5v1l-.5.5-.5.5v1l-.5.5-.5.5-.5.5-.5.5v1l-.5.5-.5.5-.5.5-.5.5-.5.5-.5.5-.5.5-.5.5-.5.5-.5.5v1l-.5.5-.5.5-.5.5-.5.5-.5.5-.5.5-.5.5-.5.5-.5.5-.5.5-.5.5-.5.5-.5.5-.5.5-.5.5-.5.5-.5.5-.5.5-.5.5-.5.5-.5.5-.5.5-.5.5-.5.5-.5.5h-1l-.5.5-.5.5-.5.5-.5.5-.5.5-.5.5h-1l-.5.5-.5.5-.5.5-.5.5-.5.5-.5.5h-1l-.5.5-.5.5-.5.5-.5.5h-1l-.5.5-.5.5h-1l-.5.5-.5.5-.5.5-.5.5h-1l-.5.5-.5.5h-1l-.5.5-.5.5h-1l-.5.5-.5.5h-1l-.5.5-.5.5h-1l-.5.5-.5.5h-2l-.5.5-.5.5h-1l-.5.5-.5.5h-2l-.5.5-.5.5h-1l-.5.5-.5.5h-2l-.5.5-.5.5h-2l-.5.5-.5.5h-2l-.5.5-.5.5h-3l-.5.5-.5.5h-2l-.5.5-.5.5h-3l-.5.5-.5.5h-3l-.5.5-.5.5h-5l-.5.5-.5.5h-5l-.5.5-.5.5h-9l-.5.5zM352 736.5h-4l-.5-.5-.5-.5-.5-.5-.5-.5-.5-.5v-1l-.5-.5-.5-.5-.5-.5-.5-.5v-1l-.5-.5-.5-.5v-1l-.5-.5-.5-.5v-1l-.5-.5-.5-.5v-2l-.5-.5-.5-.5v-1l-.5-.5-.5-.5-.5-.5-.5-.5v-1l-.5-.5-.5-.5v-1l-.5-.5-.5-.5v-1l-.5-.5-.5-.5v-1l-.5-.5-.5-.5v-2l-.5-.5-.5-.5-.5-.5-.5-.5v-1l-.5-.5-.5-.5v-1l-.5-.5-.5-.5-.5-.5-.5-.5v-1l-.5-.5-.5-.5-.5-.5-.5-.5-.5-.5-.5-.5v-1l-.5-.5-.5-.5-.5-.5-.5-.5v-1l-.5-.5-.5-.5v-2l.5-.5.5-.5.5-.5.5.5.5.5h2l.5.5.5.5h1l.5.5.5.5h1l.5.5.5.5.5.5.5.5.5.5.5.5h1l.5.5.5.5.5.5.5.5.5.5v1l.5.5.5.5.5.5.5.5.5.5.5.5.5.5.5.5v1l.5.5.5.5v1l.5.5.5.5.5.5.5.5v1l.5.5.5.5v1l.5.5.5.5v2l.5.5.5.5v1l.5.5.5.5v1l.5.5.5.5v2l.5.5.5.5v1l.5.5.5.5v3l.5.5.5.5v8zM673 737.5l-.5-.5-.5-.5-.5-.5-.5-.5-.5-.5v-6l.5-.5.5-.5v-3l.5-.5.5-.5v-2l.5-.5.5-.5v-1l.5-.5.5-.5v-1l.5-.5.5-.5v-1l.5-.5.5-.5v-2l.5-.5.5-.5v-1l.5-.5.5-.5v-1l.5-.5.5-.5v-1l.5-.5.5-.5.5-.5.5-.5v-1l.5-.5.5-.5.5-.5.5-.5v-1l.5-.5.5-.5.5-.5.5-.5.5-.5.5-.5.5-.5.5-.5.5-.5.5-.5.5-.5.5-.5.5-.5.5-.5.5-.5h1l.5-.5.5-.5.5-.5.5-.5h1l.5-.5.5-.5h2l.5-.5.5-.5h1l.5.5v4l-.5.5-.5.5-.5.5-.5.5v1l-.5.5-.5.5-.5.5-.5.5v1l-.5.5-.5.5-.5.5-.5.5v1l-.5.5-.5.5-.5.5-.5.5v1l-.5.5-.5.5-.5.5-.5.5v1l-.5.5-.5.5v1l-.5.5-.5.5v1l-.5.5-.5.5v1l-.5.5-.5.5v1l-.5.5-.5.5v1l-.5.5-.5.5v2l-.5.5-.5.5v1l-.5.5-.5.5v1l-.5.5-.5.5v1l-.5.5-.5.5v1l-.5.5-.5.5-.5.5-.5.5v1l-.5.5-.5.5-.5.5-.5.5-.5.5-.5.5-.5.5h-1l-.5.5zM370 734.5h-3l-.5-.5-.5-.5-.5-.5-.5-.5-.5-.5v-1l-.5-.5-.5-.5v-3l-.5-.5-.5-.5v-4l-.5-.5-.5-.5v-5l-.5-.5-.5-.5v-15l.5-.5.5-.5.5-.5h1l.5.5.5.5.5.5.5.5.5.5.5.5.5.5v1l.5.5.5.5v1l.5.5.5.5v2l.5.5.5.5v2l.5.5.5.5v3l.5.5.5.5v8l.5.5.5.5v2l-.5.5-.5.5v4l-.5.5-.5.5v1zM655 735.5l-.5-.5-.5-.5-.5-.5-.5-.5-.5-.5v-2l-.5-.5-.5-.5v-13l.5-.5.5-.5v-3l.5-.5.5-.5v-3l.5-.5.5-.5v-1l.5-.5.5-.5v-1l.5-.5.5-.5v-1l.5-.5.5-.5.5-.5.5-.5v-1l.5-.5h3l.5.5v2l.5.5.5.5v7l-.5.5-.5.5v6l-.5.5-.5.5v5l-.5.5-.5.5v3l-.5.5-.5.5v2l-.5.5-.5.5v1l-.5.5-.5.5v1l-.5.5h-1l-.5.5zM332 742.5h-3l-.5-.5-.5-.5-.5-.5-.5-.5h-1l-.5-.5-.5-.5-.5-.5-.5-.5-.5-.5-.5-.5-.5-.5-.5-.5-.5-.5-.5-.5-.5-.5-.5-.5-.5-.5-.5-.5-.5-.5-.5-.5-.5-.5v-1l-.5-.5-.5-.5-.5-.5-.5-.5-.5-.5-.5-.5-.5-.5-.5-.5-.5-.5-.5-.5-.5-.5-.5-.5-.5-.5-.5-.5-.5-.5-.5-.5-.5-.5-.5-.5-.5-.5-.5-.5-.5-.5-.5-.5-.5-.5-.5-.5-.5-.5-.5-.5-.5-.5-.5-.5-.5-.5-.5-.5-.5-.5-.5-.5-.5-.5-.5-.5v-1l-.5-.5-.5-.5.5-.5.5-.5.5-.5.5-.5.5-.5h4l.5.5.5.5h2l.5.5.5.5h1l.5.5.5.5h1l.5.5.5.5.5.5.5.5h1l.5.5.5.5.5.5.5.5.5.5.5.5.5.5.5.5.5.5.5.5h1l.5.5.5.5.5.5.5.5.5.5v1l.5.5.5.5.5.5.5.5.5.5.5.5.5.5.5.5v1l.5.5.5.5.5.5.5.5v1l.5.5.5.5.5.5.5.5v1l.5.5.5.5v6l-.5.5-.5.5zM693 742.5h-2l-.5-.5-.5-.5-.5-.5v-5l.5-.5.5-.5v-1l.5-.5.5-.5v-1l.5-.5.5-.5.5-.5.5-.5v-1l.5-.5.5-.5.5-.5.5-.5v-1l.5-.5.5-.5.5-.5.5-.5.5-.5.5-.5.5-.5.5-.5v-1l.5-.5h1l.5-.5.5-.5.5-.5.5-.5.5-.5.5-.5.5-.5.5-.5.5-.5.5-.5.5-.5.5-.5h1l.5-.5.5-.5.5-.5.5-.5h1l.5-.5.5-.5h1l.5-.5.5-.5h2l.5-.5.5-.5h5l.5.5v1l.5.5.5.5v1l-.5.5-.5.5-.5.5-.5.5-.5.5-.5.5-.5.5-.5.5-.5.5-.5.5-.5.5-.5.5-.5.5-.5.5-.5.5-.5.5-.5.5-.5.5-.5.5-.5.5-.5.5-.5.5-.5.5-.5.5-.5.5-.5.5-.5.5-.5.5-.5.5-.5.5-.5.5-.5.5-.5.5-.5.5-.5.5-.5.5-.5.5-.5.5v1l-.5.5-.5.5-.5.5-.5.5-.5.5-.5.5-.5.5-.5.5-.5.5-.5.5-.5.5-.5.5-.5.5h-1l-.5.5-.5.5-.5.5-.5.5h-1l-.5.5zM719 745.5h-2l-.5-.5-.5-.5-.5-.5v-4l.5-.5.5-.5.5-.5.5-.5.5-.5h1l.5-.5.5-.5h1l.5-.5.5-.5.5-.5.5-.5h1l.5-.5.5-.5h1l.5-.5.5-.5h2l.5-.5.5-.5h2l.5-.5.5-.5h4l.5-.5.5-.5h5l.5.5.5.5h1l.5.5.5.5.5.5v1l-.5.5-.5.5-.5.5h-1l-.5.5-.5.5h-1l-.5.5-.5.5h-2l-.5.5-.5.5h-1l-.5.5-.5.5h-1l-.5.5-.5.5h-2l-.5.5-.5.5h-1l-.5.5-.5.5h-1l-.5.5-.5.5h-1l-.5.5-.5.5h-2l-.5.5-.5.5h-2l-.5.5zM306 745.5h-2l-.5-.5-.5-.5h-2l-.5-.5-.5-.5h-1l-.5-.5-.5-.5h-2l-.5-.5-.5-.5h-1l-.5-.5-.5-.5h-1l-.5-.5-.5-.5h-1l-.5-.5-.5-.5h-1l-.5-.5-.5-.5h-2l-.5-.5-.5-.5h-2l-.5-.5-.5-.5h-1l-.5-.5-.5-.5h-1l-.5-.5-.5-.5-.5-.5v-1l.5-.5.5-.5.5-.5h12l.5.5.5.5h3l.5.5.5.5h1l.5.5.5.5h1l.5.5.5.5h1l.5.5.5.5h1l.5.5.5.5h1l.5.5.5.5.5.5.5.5.5.5.5.5.5.5v4l-.5.5-.5.5zM301 765.5h-3l-.5-.5-.5-.5h-55l-.5-.5v-8l.5-.5h86l.5.5-.5.5-.5.5-.5.5h-2l-.5.5-.5.5h-3l-.5.5-.5.5h-2l-.5.5-.5.5h-3l-.5.5-.5.5h-2l-.5.5-.5.5h-2l-.5.5-.5.5h-2l-.5.5-.5.5h-2l-.5.5zM736 765.5h-11l-.5-.5-.5-.5h-4l-.5-.5-.5-.5h-3l-.5-.5-.5-.5h-2l-.5-.5-.5-.5h-2l-.5-.5-.5-.5h-3l-.5-.5-.5-.5h-2l-.5-.5-.5-.5h-3l-.5-.5-.5-.5h-2l-.5-.5-.5-.5-.5-.5.5-.5h86l.5.5v8l-.5.5h-44l-.5.5zM519 794.5h-30l-.5-.5-.5-.5h-5l-.5-.5-.5-.5-.5-.5.5-.5.5-.5.5-.5.5-.5.5-.5.5-.5.5-.5.5-.5.5-.5h1l.5-.5.5-.5.5-.5.5-.5h1l.5-.5.5-.5h1l.5-.5.5-.5h2l.5-.5.5-.5h1l.5-.5.5-.5h4l.5-.5.5-.5h2l.5.5.5.5h4l.5.5.5.5h2l.5.5.5.5h2l.5.5.5.5h1l.5.5.5.5h1l.5.5.5.5h1l.5.5.5.5h1l.5.5.5.5.5.5.5.5.5.5v2l-.5.5h-1l-.5.5-.5.5h-4l-.5.5zM451 803.5h-23l-.5-.5-.5-.5h-9l-.5-.5-.5-.5h-4l-.5-.5v-1l.5-.5.5-.5.5-.5h1l.5-.5.5-.5h1l.5-.5.5-.5h2l.5-.5.5-.5h2l.5-.5.5-.5h2l.5-.5.5-.5h3l.5-.5.5-.5h7l.5-.5.5-.5h4l.5.5.5.5h5l.5.5.5.5h2l.5.5.5.5h1l.5.5.5.5h1l.5.5.5.5.5.5.5.5.5.5.5.5.5.5v1l-.5.5-.5.5-.5.5h-1l-.5.5-.5.5h-4l-.5.5zM566 806.5h-14l-.5-.5-.5-.5h-5l-.5-.5-.5-.5h-2l-.5-.5-.5-.5-.5-.5-.5-.5-.5-.5.5-.5.5-.5.5-.5.5-.5.5-.5.5-.5.5-.5h1l.5-.5.5-.5h1l.5-.5.5-.5h2l.5-.5.5-.5h18l.5.5.5.5h4l.5.5.5.5h3l.5.5.5.5h3l.5.5.5.5h1l.5.5.5.5h1l.5.5.5.5h1l.5.5-.5.5-.5.5-.5.5h-2l-.5.5-.5.5h-4l-.5.5-.5.5h-12l-.5.5z" /></svg>